<svg xmlns="http://www.w3.org/2000/svg" xmlns:xlink="http://www.w3.org/1999/xlink" width="2000" zoomAndPan="magnify" viewBox="0 0 1500 1499.999933" height="2000" preserveAspectRatio="xMidYMid meet" version="1.0"><defs><g/><clipPath id="d762023518"><path d="M 230.449219 150 L 1276 150 L 1276 1350 L 230.449219 1350 Z M 230.449219 150 " clip-rule="nonzero"/></clipPath><clipPath id="8c8eb7f9df"><path d="M 1275.855469 1049.957031 L 1275.855469 450.019531 L 753.207031 150 L 230.449219 450.019531 L 230.449219 1049.957031 L 753.207031 1349.980469 L 1275.960938 1049.957031 M 258.773438 1033.671875 L 258.773438 466.308594 L 753.207031 182.679688 L 1247.535156 466.308594 L 1247.535156 1033.671875 L 753.207031 1317.402344 L 258.773438 1033.671875 " clip-rule="nonzero"/></clipPath><clipPath id="d9a2c4f248"><path d="M 926 782 L 971.484375 782 L 971.484375 828 L 926 828 Z M 926 782 " clip-rule="nonzero"/></clipPath><clipPath id="cf00b6d53f"><path d="M 897 848 L 905 848 L 905 848.726562 L 897 848.726562 Z M 897 848 " clip-rule="nonzero"/></clipPath><clipPath id="0a6c48d1d1"><path d="M 51.972656 807 L 196 807 L 196 848.792969 L 51.972656 848.792969 Z M 51.972656 807 " clip-rule="nonzero"/></clipPath><clipPath id="e722bdd347"><path d="M 1302.886719 790 L 1447 790 L 1447 831.976562 L 1302.886719 831.976562 Z M 1302.886719 790 " clip-rule="nonzero"/></clipPath><clipPath id="e63b991056"><path d="M 774 212.660156 L 802 212.660156 L 802 240 L 774 240 Z M 774 212.660156 " clip-rule="nonzero"/></clipPath><clipPath id="e4892f498b"><path d="M 651.246094 284 L 855.246094 284 L 855.246094 558.410156 L 651.246094 558.410156 Z M 651.246094 284 " clip-rule="nonzero"/></clipPath></defs><g clip-path="url(#d762023518)"><g clip-path="url(#8c8eb7f9df)"><path fill="#000000" d="M 230.449219 150 L 1275.886719 150 L 1275.886719 1350 L 230.449219 1350 Z M 230.449219 150 " fill-opacity="1" fill-rule="nonzero"/></g></g><g fill="#000000" fill-opacity="1"><g transform="translate(1349.999917, 783.409684)"><g><path d="M 3.78125 -15.8125 C 3.707031 -15.8125 3.644531 -15.804688 3.59375 -15.796875 C 3.539062 -15.785156 3.472656 -15.773438 3.390625 -15.765625 C 3.359375 -15.765625 3.335938 -15.757812 3.328125 -15.75 C 3.316406 -15.738281 3.300781 -15.734375 3.28125 -15.734375 C 3.113281 -15.734375 3.03125 -15.832031 3.03125 -16.03125 C 3.03125 -16.3125 3.148438 -16.578125 3.390625 -16.828125 C 3.640625 -17.078125 3.945312 -17.289062 4.3125 -17.46875 C 4.6875 -17.644531 5.097656 -17.785156 5.546875 -17.890625 C 6.003906 -17.992188 6.457031 -18.046875 6.90625 -18.046875 C 8.1875 -18.046875 9.117188 -17.695312 9.703125 -17 C 10.285156 -16.300781 10.578125 -15.273438 10.578125 -13.921875 C 10.578125 -12.691406 10.367188 -11.59375 9.953125 -10.625 C 9.535156 -9.664062 8.863281 -8.742188 7.9375 -7.859375 L 1.109375 -1.453125 L 1.109375 0 L 13.453125 0 L 13.75 -5.171875 L 13.75 -5.40625 C 13.75 -5.84375 13.6875 -6.0625 13.5625 -6.0625 C 13.46875 -6.0625 13.398438 -6 13.359375 -5.875 C 13.328125 -5.757812 13.273438 -5.546875 13.203125 -5.234375 C 12.992188 -4.328125 12.695312 -3.609375 12.3125 -3.078125 C 11.9375 -2.546875 11.332031 -2.28125 10.5 -2.28125 L 2.671875 -2.28125 L 8.578125 -7.40625 C 9.242188 -7.976562 9.867188 -8.539062 10.453125 -9.09375 C 11.035156 -9.65625 11.546875 -10.21875 11.984375 -10.78125 C 12.421875 -11.351562 12.769531 -11.929688 13.03125 -12.515625 C 13.289062 -13.097656 13.421875 -13.695312 13.421875 -14.3125 C 13.421875 -15.113281 13.25 -15.785156 12.90625 -16.328125 C 12.5625 -16.878906 12.109375 -17.328125 11.546875 -17.671875 C 10.992188 -18.015625 10.367188 -18.257812 9.671875 -18.40625 C 8.972656 -18.550781 8.28125 -18.625 7.59375 -18.625 C 6.78125 -18.625 6.003906 -18.53125 5.265625 -18.34375 C 4.535156 -18.164062 3.890625 -17.894531 3.328125 -17.53125 C 2.773438 -17.164062 2.335938 -16.722656 2.015625 -16.203125 C 1.691406 -15.679688 1.53125 -15.085938 1.53125 -14.421875 C 1.53125 -13.867188 1.695312 -13.414062 2.03125 -13.0625 C 2.363281 -12.707031 2.828125 -12.53125 3.421875 -12.53125 C 3.890625 -12.53125 4.320312 -12.664062 4.71875 -12.9375 C 5.113281 -13.21875 5.3125 -13.648438 5.3125 -14.234375 C 5.3125 -14.597656 5.164062 -14.953125 4.875 -15.296875 C 4.59375 -15.640625 4.226562 -15.8125 3.78125 -15.8125 Z M 3.78125 -15.8125 "/></g></g></g><g fill="#000000" fill-opacity="1"><g transform="translate(1364.976157, 783.409684)"><g><path d="M 0.859375 -9.125 C 0.859375 -7.925781 1.019531 -6.753906 1.34375 -5.609375 C 1.675781 -4.460938 2.132812 -3.441406 2.71875 -2.546875 C 3.300781 -1.660156 4 -0.941406 4.8125 -0.390625 C 5.632812 0.148438 6.535156 0.421875 7.515625 0.421875 C 8.503906 0.421875 9.40625 0.148438 10.21875 -0.390625 C 11.03125 -0.941406 11.726562 -1.660156 12.3125 -2.546875 C 12.90625 -3.441406 13.363281 -4.460938 13.6875 -5.609375 C 14.007812 -6.753906 14.171875 -7.925781 14.171875 -9.125 C 14.171875 -10.320312 14.007812 -11.492188 13.6875 -12.640625 C 13.363281 -13.796875 12.90625 -14.816406 12.3125 -15.703125 C 11.726562 -16.597656 11.03125 -17.316406 10.21875 -17.859375 C 9.40625 -18.410156 8.503906 -18.6875 7.515625 -18.6875 C 6.535156 -18.6875 5.632812 -18.410156 4.8125 -17.859375 C 4 -17.316406 3.300781 -16.597656 2.71875 -15.703125 C 2.132812 -14.816406 1.675781 -13.796875 1.34375 -12.640625 C 1.019531 -11.492188 0.859375 -10.320312 0.859375 -9.125 Z M 7.515625 -0.03125 C 6.960938 -0.03125 6.460938 -0.132812 6.015625 -0.34375 C 5.566406 -0.5625 5.1875 -0.9375 4.875 -1.46875 C 4.570312 -2.007812 4.335938 -2.726562 4.171875 -3.625 C 4.003906 -4.53125 3.921875 -5.671875 3.921875 -7.046875 L 3.921875 -11.21875 C 3.921875 -12.59375 4.003906 -13.726562 4.171875 -14.625 C 4.335938 -15.53125 4.570312 -16.25 4.875 -16.78125 C 5.1875 -17.320312 5.566406 -17.695312 6.015625 -17.90625 C 6.460938 -18.125 6.960938 -18.234375 7.515625 -18.234375 C 8.078125 -18.234375 8.578125 -18.128906 9.015625 -17.921875 C 9.460938 -17.722656 9.835938 -17.363281 10.140625 -16.84375 C 10.453125 -16.320312 10.691406 -15.609375 10.859375 -14.703125 C 11.023438 -13.796875 11.109375 -12.632812 11.109375 -11.21875 L 11.109375 -7.046875 C 11.109375 -5.671875 11.023438 -4.53125 10.859375 -3.625 C 10.691406 -2.726562 10.453125 -2.007812 10.140625 -1.46875 C 9.835938 -0.9375 9.460938 -0.5625 9.015625 -0.34375 C 8.578125 -0.132812 8.078125 -0.03125 7.515625 -0.03125 Z M 7.515625 -0.03125 "/></g></g></g><g fill="#000000" fill-opacity="1"><g transform="translate(1379.952398, 783.409684)"><g><path d="M 3.78125 -15.8125 C 3.707031 -15.8125 3.644531 -15.804688 3.59375 -15.796875 C 3.539062 -15.785156 3.472656 -15.773438 3.390625 -15.765625 C 3.359375 -15.765625 3.335938 -15.757812 3.328125 -15.75 C 3.316406 -15.738281 3.300781 -15.734375 3.28125 -15.734375 C 3.113281 -15.734375 3.03125 -15.832031 3.03125 -16.03125 C 3.03125 -16.3125 3.148438 -16.578125 3.390625 -16.828125 C 3.640625 -17.078125 3.945312 -17.289062 4.3125 -17.46875 C 4.6875 -17.644531 5.097656 -17.785156 5.546875 -17.890625 C 6.003906 -17.992188 6.457031 -18.046875 6.90625 -18.046875 C 8.1875 -18.046875 9.117188 -17.695312 9.703125 -17 C 10.285156 -16.300781 10.578125 -15.273438 10.578125 -13.921875 C 10.578125 -12.691406 10.367188 -11.59375 9.953125 -10.625 C 9.535156 -9.664062 8.863281 -8.742188 7.9375 -7.859375 L 1.109375 -1.453125 L 1.109375 0 L 13.453125 0 L 13.75 -5.171875 L 13.75 -5.40625 C 13.75 -5.84375 13.6875 -6.0625 13.5625 -6.0625 C 13.46875 -6.0625 13.398438 -6 13.359375 -5.875 C 13.328125 -5.757812 13.273438 -5.546875 13.203125 -5.234375 C 12.992188 -4.328125 12.695312 -3.609375 12.3125 -3.078125 C 11.9375 -2.546875 11.332031 -2.28125 10.5 -2.28125 L 2.671875 -2.28125 L 8.578125 -7.40625 C 9.242188 -7.976562 9.867188 -8.539062 10.453125 -9.09375 C 11.035156 -9.65625 11.546875 -10.21875 11.984375 -10.78125 C 12.421875 -11.351562 12.769531 -11.929688 13.03125 -12.515625 C 13.289062 -13.097656 13.421875 -13.695312 13.421875 -14.3125 C 13.421875 -15.113281 13.25 -15.785156 12.90625 -16.328125 C 12.5625 -16.878906 12.109375 -17.328125 11.546875 -17.671875 C 10.992188 -18.015625 10.367188 -18.257812 9.671875 -18.40625 C 8.972656 -18.550781 8.28125 -18.625 7.59375 -18.625 C 6.78125 -18.625 6.003906 -18.53125 5.265625 -18.34375 C 4.535156 -18.164062 3.890625 -17.894531 3.328125 -17.53125 C 2.773438 -17.164062 2.335938 -16.722656 2.015625 -16.203125 C 1.691406 -15.679688 1.53125 -15.085938 1.53125 -14.421875 C 1.53125 -13.867188 1.695312 -13.414062 2.03125 -13.0625 C 2.363281 -12.707031 2.828125 -12.53125 3.421875 -12.53125 C 3.890625 -12.53125 4.320312 -12.664062 4.71875 -12.9375 C 5.113281 -13.21875 5.3125 -13.648438 5.3125 -14.234375 C 5.3125 -14.597656 5.164062 -14.953125 4.875 -15.296875 C 4.59375 -15.640625 4.226562 -15.8125 3.78125 -15.8125 Z M 3.78125 -15.8125 "/></g></g></g><g fill="#000000" fill-opacity="1"><g transform="translate(1394.928638, 783.409684)"><g><path d="M 0.859375 -9.125 C 0.859375 -7.925781 1.019531 -6.753906 1.34375 -5.609375 C 1.675781 -4.460938 2.132812 -3.441406 2.71875 -2.546875 C 3.300781 -1.660156 4 -0.941406 4.8125 -0.390625 C 5.632812 0.148438 6.535156 0.421875 7.515625 0.421875 C 8.503906 0.421875 9.40625 0.148438 10.21875 -0.390625 C 11.03125 -0.941406 11.726562 -1.660156 12.3125 -2.546875 C 12.90625 -3.441406 13.363281 -4.460938 13.6875 -5.609375 C 14.007812 -6.753906 14.171875 -7.925781 14.171875 -9.125 C 14.171875 -10.320312 14.007812 -11.492188 13.6875 -12.640625 C 13.363281 -13.796875 12.90625 -14.816406 12.3125 -15.703125 C 11.726562 -16.597656 11.03125 -17.316406 10.21875 -17.859375 C 9.40625 -18.410156 8.503906 -18.6875 7.515625 -18.6875 C 6.535156 -18.6875 5.632812 -18.410156 4.8125 -17.859375 C 4 -17.316406 3.300781 -16.597656 2.71875 -15.703125 C 2.132812 -14.816406 1.675781 -13.796875 1.34375 -12.640625 C 1.019531 -11.492188 0.859375 -10.320312 0.859375 -9.125 Z M 7.515625 -0.03125 C 6.960938 -0.03125 6.460938 -0.132812 6.015625 -0.34375 C 5.566406 -0.5625 5.1875 -0.9375 4.875 -1.46875 C 4.570312 -2.007812 4.335938 -2.726562 4.171875 -3.625 C 4.003906 -4.53125 3.921875 -5.671875 3.921875 -7.046875 L 3.921875 -11.21875 C 3.921875 -12.59375 4.003906 -13.726562 4.171875 -14.625 C 4.335938 -15.53125 4.570312 -16.25 4.875 -16.78125 C 5.1875 -17.320312 5.566406 -17.695312 6.015625 -17.90625 C 6.460938 -18.125 6.960938 -18.234375 7.515625 -18.234375 C 8.078125 -18.234375 8.578125 -18.128906 9.015625 -17.921875 C 9.460938 -17.722656 9.835938 -17.363281 10.140625 -16.84375 C 10.453125 -16.320312 10.691406 -15.609375 10.859375 -14.703125 C 11.023438 -13.796875 11.109375 -12.632812 11.109375 -11.21875 L 11.109375 -7.046875 C 11.109375 -5.671875 11.023438 -4.53125 10.859375 -3.625 C 10.691406 -2.726562 10.453125 -2.007812 10.140625 -1.46875 C 9.835938 -0.9375 9.460938 -0.5625 9.015625 -0.34375 C 8.578125 -0.132812 8.078125 -0.03125 7.515625 -0.03125 Z M 7.515625 -0.03125 "/></g></g></g><g clip-path="url(#d9a2c4f248)"><path fill="#000000" d="M 971.414062 783.199219 C 965.820312 794.261719 957.328125 804.949219 948.421875 813.859375 C 945.203125 817.078125 941.832031 820.164062 938.328125 823.066406 C 937.554688 821.402344 936.476562 819.839844 935.101562 818.464844 C 933.726562 817.089844 932.164062 816.015625 930.5 815.238281 C 933.402344 811.734375 936.488281 808.363281 939.707031 805.144531 C 948.617188 796.238281 959.304688 787.746094 970.367188 782.152344 C 970.714844 781.976562 971.082031 782.015625 971.316406 782.25 C 971.550781 782.484375 971.589844 782.851562 971.414062 783.199219 Z M 935.871094 825.0625 C 934.941406 825.796875 934.003906 826.515625 933.058594 827.222656 C 932.808594 827.410156 932.535156 827.476562 932.273438 827.410156 C 932.007812 827.347656 931.832031 827.171875 931.765625 826.910156 C 931.441406 825.640625 930.8125 824.53125 929.925781 823.644531 C 929.035156 822.753906 927.925781 822.125 926.65625 821.800781 C 926.394531 821.734375 926.21875 821.558594 926.15625 821.292969 C 926.09375 821.03125 926.15625 820.757812 926.34375 820.511719 C 927.050781 819.5625 927.773438 818.625 928.507812 817.695312 C 930.125 818.335938 931.640625 819.3125 932.949219 820.621094 C 934.253906 821.925781 935.230469 823.445312 935.871094 825.0625 Z M 935.871094 825.0625 " fill-opacity="1" fill-rule="evenodd"/></g><path fill="#000000" d="M 902.144531 847.542969 C 928.46875 849.84375 933.558594 830.304688 926.785156 824.859375 C 922.5625 821.464844 918.289062 822.109375 915.382812 824.851562 C 909.84375 830.066406 912.804688 840.769531 902.144531 847.542969 Z M 902.144531 847.542969 " fill-opacity="1" fill-rule="evenodd"/><g clip-path="url(#cf00b6d53f)"><path fill="#000000" d="M 901.84375 848.214844 C 901.78125 849.492188 897.78125 854.082031 897.097656 858.183594 C 895.804688 865.945312 908.175781 867.386719 902.9375 853.105469 C 902.425781 851.707031 901.953125 850.167969 901.84375 848.214844 Z M 901.84375 848.214844 " fill-opacity="1" fill-rule="evenodd"/></g><g clip-path="url(#0a6c48d1d1)"><path fill="#000000" d="M 56.296875 810.628906 L 51.972656 810.628906 L 97.015625 810.628906 C 95.902344 811.59375 94.789062 812.558594 93.652344 813.523438 C 88.316406 818.046875 82.832031 822.398438 77.273438 826.550781 C 76.382812 827.21875 75.445312 827.910156 74.457031 828.628906 C 72.183594 830.285156 70.28125 832.484375 69.121094 834.808594 C 66.945312 839.183594 67.144531 843.460938 69.664062 845.957031 C 72.183594 848.453125 76.457031 848.675781 80.832031 846.5 C 83.152344 845.339844 85.328125 843.460938 87.007812 841.1875 C 87.699219 840.246094 88.390625 839.308594 89.082031 838.367188 C 95.457031 829.8125 102.300781 821.507812 109.515625 813.5 C 110.378906 812.535156 111.269531 811.570312 112.160156 810.605469 L 144.96875 810.605469 C 145.019531 810.65625 145.066406 810.730469 145.117188 810.777344 C 153.320312 819.652344 161.054688 828.925781 168.195312 838.515625 C 168.886719 839.457031 169.601562 840.394531 170.269531 841.335938 C 171.925781 843.609375 174.097656 845.460938 176.394531 846.625 C 180.71875 848.773438 184.945312 848.578125 187.414062 846.105469 C 189.886719 843.632812 190.082031 839.40625 187.933594 835.078125 C 186.796875 832.78125 184.917969 830.605469 182.648438 828.949219 C 181.683594 828.230469 180.71875 827.539062 179.832031 826.871094 C 173.035156 821.804688 166.390625 816.441406 159.941406 810.804688 C 159.867188 810.753906 159.816406 810.679688 159.742188 810.628906 L 195.59375 810.628906 L 195.59375 807.738281 L 56.296875 807.738281 Z M 56.296875 810.628906 " fill-opacity="1" fill-rule="nonzero"/></g><path fill="#000000" d="M 142.769531 773.871094 L 145.660156 770.976562 L 150.28125 766.378906 C 152.898438 763.734375 156.605469 762.621094 160.140625 763.390625 C 164.585938 764.328125 169.578125 763.859375 174.617188 762.054688 C 179.757812 760.199219 184.699219 757.011719 188.871094 752.832031 C 200.878906 740.820312 203.472656 723.910156 194.679688 715.109375 C 185.882812 706.308594 168.960938 708.902344 156.976562 720.917969 C 152.824219 725.070312 149.640625 729.992188 147.785156 735.109375 C 145.957031 740.125 145.488281 745.121094 146.402344 749.546875 C 147.167969 753.230469 146.054688 756.984375 143.4375 759.582031 L 132.023438 771.003906 L 129.15625 773.871094 L 126.167969 773.871094 L 115.644531 763.339844 C 113.171875 760.867188 111.910156 757.503906 112.132812 754.117188 C 112.652344 746.457031 109.863281 738.941406 104.402344 733.5 L 76.507812 707.46875 C 75.914062 706.902344 74.976562 706.925781 74.382812 707.496094 C 73.816406 708.0625 73.789062 709.003906 74.332031 709.597656 L 97.929688 735.800781 C 98.25 736.171875 98.421875 736.640625 98.421875 737.136719 C 98.398438 737.628906 98.199219 738.097656 97.855469 738.445312 C 97.136719 739.164062 95.976562 739.1875 95.210938 738.496094 L 68.773438 714.34375 C 68.429688 714.019531 67.886719 714.046875 67.539062 714.367188 L 67.070312 714.835938 C 66.722656 715.183594 66.722656 715.726562 67.046875 716.074219 L 91.085938 742.425781 C 91.457031 742.820312 91.652344 743.339844 91.628906 743.882812 C 91.601562 744.429688 91.40625 744.921875 91.011719 745.316406 L 90.960938 745.367188 C 90.589844 745.738281 90.070312 745.960938 89.527344 745.984375 C 88.984375 746.011719 88.464844 745.8125 88.070312 745.441406 L 61.757812 721.363281 C 61.410156 721.042969 60.867188 721.042969 60.523438 721.386719 L 60.054688 721.859375 C 59.707031 722.203125 59.707031 722.746094 60.027344 723.09375 L 84.167969 749.546875 C 84.859375 750.3125 84.832031 751.472656 84.117188 752.191406 C 83.769531 752.535156 83.300781 752.734375 82.808594 752.757812 C 82.3125 752.785156 81.84375 752.609375 81.472656 752.265625 L 55.308594 728.632812 C 54.714844 728.085938 53.777344 728.113281 53.210938 728.679688 C 52.617188 729.273438 52.617188 730.1875 53.160156 730.808594 L 79.175781 758.742188 C 84.585938 764.15625 92.097656 766.972656 99.730469 766.453125 C 103.117188 766.230469 106.476562 767.515625 108.949219 769.964844 L 112.851562 773.871094 L 56.296875 773.871094 L 56.296875 776.761719 L 195.59375 776.761719 L 195.59375 773.871094 Z M 142.769531 773.871094 " fill-opacity="1" fill-rule="nonzero"/><g clip-path="url(#e722bdd347)"><path fill="#000000" d="M 1307.210938 793.816406 L 1302.886719 793.816406 L 1347.929688 793.816406 C 1346.816406 794.78125 1345.703125 795.746094 1344.570312 796.707031 C 1339.230469 801.234375 1333.746094 805.582031 1328.1875 809.738281 C 1327.296875 810.40625 1326.359375 811.097656 1325.371094 811.8125 C 1323.097656 813.46875 1321.195312 815.671875 1320.035156 817.992188 C 1317.859375 822.371094 1318.058594 826.644531 1320.578125 829.144531 C 1323.097656 831.640625 1327.371094 831.863281 1331.746094 829.6875 C 1334.066406 828.523438 1336.242188 826.644531 1337.921875 824.371094 C 1338.613281 823.433594 1339.304688 822.492188 1339.996094 821.554688 C 1346.371094 813 1353.214844 804.695312 1360.429688 796.683594 C 1361.292969 795.71875 1362.183594 794.757812 1363.074219 793.792969 L 1395.882812 793.792969 C 1395.933594 793.839844 1395.984375 793.914062 1396.03125 793.964844 C 1404.234375 802.839844 1411.96875 812.109375 1419.109375 821.703125 C 1419.800781 822.640625 1420.515625 823.582031 1421.183594 824.519531 C 1422.839844 826.792969 1425.011719 828.648438 1427.308594 829.808594 C 1431.632812 831.960938 1435.859375 831.761719 1438.328125 829.292969 C 1440.800781 826.820312 1440.996094 822.589844 1438.847656 818.265625 C 1437.710938 815.964844 1435.835938 813.792969 1433.5625 812.136719 C 1432.597656 811.417969 1431.632812 810.726562 1430.746094 810.058594 C 1423.949219 804.992188 1417.304688 799.625 1410.855469 793.988281 C 1410.78125 793.941406 1410.730469 793.867188 1410.65625 793.816406 L 1446.507812 793.816406 L 1446.507812 790.925781 L 1307.210938 790.925781 Z M 1307.210938 793.816406 " fill-opacity="1" fill-rule="nonzero"/></g><path fill="#000000" d="M 1393.683594 757.054688 L 1396.574219 754.164062 L 1401.195312 749.566406 C 1403.816406 746.921875 1407.519531 745.808594 1411.054688 746.574219 C 1415.5 747.515625 1420.492188 747.042969 1425.53125 745.238281 C 1430.671875 743.386719 1435.613281 740.195312 1439.789062 736.019531 C 1451.792969 724.003906 1454.386719 707.09375 1445.59375 698.296875 C 1436.796875 689.496094 1419.875 692.089844 1407.890625 704.105469 C 1403.742188 708.257812 1400.554688 713.175781 1398.699219 718.292969 C 1396.871094 723.3125 1396.402344 728.304688 1397.316406 732.730469 C 1398.082031 736.414062 1396.972656 740.171875 1394.351562 742.769531 L 1382.9375 754.1875 L 1380.070312 757.054688 L 1377.082031 757.054688 L 1366.558594 746.527344 C 1364.085938 744.054688 1362.828125 740.691406 1363.050781 737.304688 C 1363.566406 729.640625 1360.777344 722.125 1355.316406 716.6875 L 1327.421875 690.65625 C 1326.828125 690.085938 1325.890625 690.113281 1325.296875 690.679688 C 1324.730469 691.25 1324.703125 692.1875 1325.246094 692.78125 L 1348.84375 718.988281 C 1349.164062 719.355469 1349.335938 719.828125 1349.335938 720.320312 C 1349.3125 720.816406 1349.113281 721.285156 1348.769531 721.632812 C 1348.050781 722.347656 1346.890625 722.375 1346.125 721.679688 L 1319.6875 697.527344 C 1319.34375 697.207031 1318.800781 697.230469 1318.453125 697.554688 L 1317.984375 698.023438 C 1317.636719 698.367188 1317.636719 698.914062 1317.960938 699.257812 L 1342 725.613281 C 1342.371094 726.007812 1342.566406 726.527344 1342.542969 727.070312 C 1342.519531 727.613281 1342.320312 728.109375 1341.925781 728.503906 L 1341.875 728.554688 C 1341.503906 728.925781 1340.984375 729.148438 1340.441406 729.171875 C 1339.898438 729.195312 1339.378906 729 1338.984375 728.628906 L 1312.671875 704.550781 C 1312.328125 704.226562 1311.78125 704.226562 1311.4375 704.574219 L 1310.96875 705.042969 C 1310.621094 705.390625 1310.621094 705.933594 1310.941406 706.28125 L 1335.082031 732.730469 C 1335.773438 733.496094 1335.75 734.660156 1335.03125 735.375 C 1334.6875 735.722656 1334.214844 735.921875 1333.722656 735.945312 C 1333.226562 735.96875 1332.757812 735.796875 1332.386719 735.449219 L 1306.222656 711.816406 C 1305.632812 711.273438 1304.691406 711.296875 1304.125 711.867188 C 1303.53125 712.460938 1303.53125 713.375 1304.074219 713.992188 L 1330.089844 741.925781 C 1335.5 747.339844 1343.011719 750.160156 1350.644531 749.640625 C 1354.03125 749.417969 1357.390625 750.703125 1359.863281 753.152344 L 1363.765625 757.054688 L 1307.210938 757.054688 L 1307.210938 759.949219 L 1446.507812 759.949219 L 1446.507812 757.054688 Z M 1393.683594 757.054688 " fill-opacity="1" fill-rule="nonzero"/><g fill="#000000" fill-opacity="1"><g transform="translate(303.221403, 745.280833)"><g><path d="M 203.859375 -116.84375 L 203.859375 -71.578125 C 198.460938 -46.785156 186.65625 -28.023438 168.4375 -15.296875 C 150.226562 -2.566406 129.910156 3.796875 107.484375 3.796875 C 79.328125 3.796875 55.34375 -6.738281 35.53125 -27.8125 C 15.71875 -48.894531 5.8125 -74.359375 5.8125 -104.203125 C 5.8125 -134.554688 15.503906 -160.1875 34.890625 -181.09375 C 54.285156 -202 78.484375 -212.453125 107.484375 -212.453125 C 141.378906 -212.453125 168.191406 -200.566406 187.921875 -176.796875 L 156.8125 -142.640625 C 145.6875 -160.515625 130.175781 -169.453125 110.28125 -169.453125 C 95.601562 -169.453125 83.078125 -163.085938 72.703125 -150.359375 C 62.335938 -137.628906 57.15625 -122.242188 57.15625 -104.203125 C 57.15625 -86.492188 62.335938 -71.359375 72.703125 -58.796875 C 83.078125 -46.242188 95.601562 -39.96875 110.28125 -39.96875 C 122.414062 -39.96875 132.992188 -43.632812 142.015625 -50.96875 C 151.035156 -58.300781 155.546875 -68.035156 155.546875 -80.171875 L 107.484375 -80.171875 L 107.484375 -116.84375 Z M 203.859375 -116.84375 "/></g></g></g><g fill="#000000" fill-opacity="1"><g transform="translate(512.888783, 745.280833)"><g><path d="M 24.015625 -16.0625 C 11.878906 -29.300781 5.8125 -45.53125 5.8125 -64.75 C 5.8125 -83.96875 11.878906 -100.238281 24.015625 -113.5625 C 36.160156 -126.882812 51.59375 -133.546875 70.3125 -133.546875 C 87.507812 -133.546875 101.671875 -128.148438 112.796875 -117.359375 L 112.796875 -129.75 L 157.5625 -129.75 L 157.5625 0 L 113.3125 0 L 113.3125 -14.671875 L 112.796875 -14.671875 C 101.671875 -2.359375 87.507812 3.796875 70.3125 3.796875 C 51.59375 3.796875 36.160156 -2.820312 24.015625 -16.0625 Z M 62.078125 -86.75 C 56.265625 -81.019531 53.359375 -73.6875 53.359375 -64.75 C 53.359375 -55.8125 56.140625 -48.515625 61.703125 -42.859375 C 67.273438 -37.210938 74.613281 -34.390625 83.71875 -34.390625 C 92.488281 -34.390625 99.695312 -37.253906 105.34375 -42.984375 C 110.988281 -48.722656 113.8125 -55.976562 113.8125 -64.75 C 113.8125 -73.6875 110.898438 -81.019531 105.078125 -86.75 C 99.265625 -92.476562 92.144531 -95.34375 83.71875 -95.34375 C 75.113281 -95.34375 67.898438 -92.476562 62.078125 -86.75 Z M 62.078125 -86.75 "/></g></g></g><g fill="#000000" fill-opacity="1"><g transform="translate(685.630459, 745.280833)"><g><path d="M 71.578125 -133.546875 C 78.992188 -133.546875 86.328125 -132.703125 93.578125 -131.015625 C 100.828125 -129.328125 106.222656 -127.640625 109.765625 -125.953125 L 115.078125 -123.421875 L 100.40625 -94.09375 C 90.289062 -99.488281 80.679688 -102.1875 71.578125 -102.1875 C 66.515625 -102.1875 62.929688 -101.632812 60.828125 -100.53125 C 58.722656 -99.4375 57.671875 -97.375 57.671875 -94.34375 C 57.671875 -93.664062 57.753906 -92.988281 57.921875 -92.3125 C 58.085938 -91.644531 58.421875 -91.015625 58.921875 -90.421875 C 59.429688 -89.828125 59.894531 -89.316406 60.3125 -88.890625 C 60.738281 -88.472656 61.457031 -88.007812 62.46875 -87.5 C 63.476562 -87 64.28125 -86.625 64.875 -86.375 C 65.46875 -86.125 66.4375 -85.742188 67.78125 -85.234375 C 69.132812 -84.722656 70.144531 -84.34375 70.8125 -84.09375 C 71.488281 -83.84375 72.628906 -83.460938 74.234375 -82.953125 C 75.835938 -82.453125 77.0625 -82.117188 77.90625 -81.953125 C 83.125 -80.429688 87.671875 -78.742188 91.546875 -76.890625 C 95.429688 -75.035156 99.523438 -72.503906 103.828125 -69.296875 C 108.128906 -66.097656 111.457031 -62.050781 113.8125 -57.15625 C 116.175781 -52.269531 117.359375 -46.707031 117.359375 -40.46875 C 117.359375 -10.957031 96.867188 3.796875 55.890625 3.796875 C 46.617188 3.796875 37.8125 2.363281 29.46875 -0.5 C 21.125 -3.375 15.09375 -6.242188 11.375 -9.109375 L 5.8125 -13.65625 L 24.03125 -44.265625 C 25.375 -43.078125 27.140625 -41.679688 29.328125 -40.078125 C 31.523438 -38.484375 35.488281 -36.296875 41.21875 -33.515625 C 46.957031 -30.734375 51.9375 -29.34375 56.15625 -29.34375 C 65.425781 -29.34375 70.0625 -32.460938 70.0625 -38.703125 C 70.0625 -41.566406 68.878906 -43.796875 66.515625 -45.390625 C 64.160156 -46.992188 60.15625 -48.804688 54.5 -50.828125 C 48.851562 -52.859375 44.425781 -54.71875 41.21875 -56.40625 C 33.132812 -60.613281 26.726562 -65.375 22 -70.6875 C 17.28125 -76 14.921875 -83.039062 14.921875 -91.8125 C 14.921875 -104.957031 20.019531 -115.195312 30.21875 -122.53125 C 40.425781 -129.875 54.210938 -133.546875 71.578125 -133.546875 Z M 71.578125 -133.546875 "/></g></g></g><g fill="#000000" fill-opacity="1"><g transform="translate(810.065164, 745.280833)"><g><path d="M 22.765625 -129.75 L 22.765625 -178.0625 L 67.53125 -178.0625 L 67.53125 -129.75 L 94.84375 -129.75 L 94.84375 -95.609375 L 67.53125 -95.609375 L 67.53125 -54.375 C 67.53125 -42.40625 70.898438 -36.421875 77.640625 -36.421875 C 79.328125 -36.421875 81.097656 -36.753906 82.953125 -37.421875 C 84.804688 -38.097656 86.242188 -38.773438 87.265625 -39.453125 L 88.78125 -40.46875 L 99.90625 -4.296875 C 90.289062 1.097656 79.332031 3.796875 67.03125 3.796875 C 58.59375 3.796875 51.335938 2.320312 45.265625 -0.625 C 39.203125 -3.582031 34.609375 -7.546875 31.484375 -12.515625 C 28.367188 -17.492188 26.132812 -22.722656 24.78125 -28.203125 C 23.4375 -33.679688 22.765625 -39.539062 22.765625 -45.78125 L 22.765625 -95.609375 L 4.046875 -95.609375 L 4.046875 -129.75 Z M 22.765625 -129.75 "/></g></g></g><g fill="#000000" fill-opacity="1"><g transform="translate(909.966947, 745.280833)"><g><path d="M 15.171875 0 L 15.171875 -129.75 L 59.9375 -129.75 L 59.9375 -111.03125 L 60.453125 -111.03125 C 60.785156 -111.707031 61.332031 -112.550781 62.09375 -113.5625 C 62.851562 -114.570312 64.492188 -116.34375 67.015625 -118.875 C 69.546875 -121.40625 72.242188 -123.679688 75.109375 -125.703125 C 77.984375 -127.722656 81.695312 -129.535156 86.25 -131.140625 C 90.800781 -132.742188 95.4375 -133.546875 100.15625 -133.546875 C 105.039062 -133.546875 109.84375 -132.867188 114.5625 -131.515625 C 119.289062 -130.171875 122.75 -128.820312 124.9375 -127.46875 L 128.484375 -125.453125 L 109.765625 -87.515625 C 104.203125 -92.234375 96.445312 -94.59375 86.5 -94.59375 C 81.101562 -94.59375 76.460938 -93.410156 72.578125 -91.046875 C 68.703125 -88.691406 65.960938 -85.828125 64.359375 -82.453125 C 62.765625 -79.078125 61.628906 -76.207031 60.953125 -73.84375 C 60.273438 -71.488281 59.9375 -69.632812 59.9375 -68.28125 L 59.9375 0 Z M 15.171875 0 "/></g></g></g><g fill="#000000" fill-opacity="1"><g transform="translate(1035.919152, 745.280833)"><g><path d="M 27.4375 -15.421875 C 13.019531 -28.242188 5.8125 -44.6875 5.8125 -64.75 C 5.8125 -84.8125 13.316406 -101.289062 28.328125 -114.1875 C 43.335938 -127.09375 61.882812 -133.546875 83.96875 -133.546875 C 105.71875 -133.546875 124.050781 -127.050781 138.96875 -114.0625 C 153.894531 -101.082031 161.359375 -84.644531 161.359375 -64.75 C 161.359375 -44.851562 154.066406 -28.453125 139.484375 -15.546875 C 124.898438 -2.648438 106.394531 3.796875 83.96875 3.796875 C 60.695312 3.796875 41.851562 -2.609375 27.4375 -15.421875 Z M 62.078125 -86.75 C 56.265625 -81.019531 53.359375 -73.6875 53.359375 -64.75 C 53.359375 -55.8125 56.140625 -48.515625 61.703125 -42.859375 C 67.273438 -37.210938 74.613281 -34.390625 83.71875 -34.390625 C 92.488281 -34.390625 99.695312 -37.253906 105.34375 -42.984375 C 110.988281 -48.722656 113.8125 -55.976562 113.8125 -64.75 C 113.8125 -73.6875 110.898438 -81.019531 105.078125 -86.75 C 99.265625 -92.476562 92.144531 -95.34375 83.71875 -95.34375 C 75.113281 -95.34375 67.898438 -92.476562 62.078125 -86.75 Z M 62.078125 -86.75 "/></g></g></g><g clip-path="url(#e63b991056)"><path fill="#000000" d="M 788.046875 233.695312 C 798.003906 233.484375 796.738281 217.882812 787.257812 218.824219 C 777.992188 219.742188 778.527344 233.902344 788.046875 233.695312 Z M 784.914062 212.949219 C 796.234375 210.878906 804.847656 220.808594 800.566406 231.742188 C 796.375 242.453125 779.03125 241.707031 775.125 231.742188 C 771.625 222.796875 777.140625 214.375 784.914062 212.949219 " fill-opacity="1" fill-rule="evenodd"/></g><path fill="#000000" d="M 716.03125 239.179688 C 720.394531 237.28125 730.632812 250.667969 723.464844 251.3125 C 722.210938 251.425781 708.984375 242.242188 716.03125 239.179688 " fill-opacity="1" fill-rule="evenodd"/><path fill="#000000" d="M 734.035156 250.921875 C 733.863281 250.4375 733.53125 250.117188 732.859375 250.136719 C 731.476562 246.378906 737.703125 239.160156 740.6875 238.785156 C 742.605469 238.542969 744.195312 239.546875 744.601562 240.742188 C 746.109375 245.191406 737.769531 250.835938 734.035156 250.921875 " fill-opacity="1" fill-rule="evenodd"/><path fill="#000000" d="M 726.207031 258.359375 C 727.460938 262.171875 720.152344 270.464844 716.03125 269.320312 C 710.152344 267.679688 720.671875 253.738281 726.207031 258.359375 " fill-opacity="1" fill-rule="evenodd"/><path fill="#000000" d="M 734.035156 257.574219 C 739.539062 254.601562 748.183594 269.007812 741.863281 269.710938 C 739.910156 269.925781 728.136719 260.757812 734.035156 257.574219 " fill-opacity="1" fill-rule="evenodd"/><g clip-path="url(#e4892f498b)"><path fill="#000000" d="M 746.949219 424.714844 C 746.6875 462.949219 747.472656 502.21875 746.558594 539.800781 L 697.636719 539.800781 L 697.636719 549.976562 L 811.527344 549.976562 L 811.527344 539.800781 C 795.210938 539.542969 777.867188 540.324219 762.207031 539.414062 L 762.207031 424.328125 L 761.425781 424.328125 C 757.359375 425.21875 751.65625 424.476562 746.945312 424.714844 Z M 727.773438 401.226562 C 729.5625 400.417969 730.867188 399.113281 731.6875 397.320312 C 726.199219 391.546875 725.371094 375.347656 729.730469 367.5625 C 718.898438 367.832031 707.03125 367.050781 696.851562 367.960938 C 707.425781 378.789062 717.667969 389.945312 727.773438 401.226562 Z M 782.957031 367.5625 C 785.339844 372.222656 786.257812 378.730469 785.695312 384.792969 C 783.550781 407.863281 754.003906 417.773438 736.773438 403.976562 C 732.714844 406.992188 734.351562 408.359375 737.164062 411.402344 C 738.535156 412.898438 739.953125 414.035156 741.472656 414.539062 C 749.140625 417.089844 761.242188 414.144531 767.6875 414.539062 C 781.136719 399.703125 796.671875 384.1875 809.574219 369.136719 C 810.089844 368.535156 811.761719 367.484375 811.136719 366.398438 L 782.558594 366.398438 C 782.550781 366.929688 782.75 367.257812 782.957031 367.5625 Z M 746.558594 378.53125 C 756.445312 378.3125 757.089844 361.035156 745.773438 362.085938 C 734.789062 363.113281 737.148438 378.730469 746.558594 378.53125 Z M 741.078125 384.011719 C 739.507812 383.546875 738.054688 382.011719 736.773438 380.875 C 735.40625 379.667969 734.28125 377.917969 733.25 378.136719 C 730.257812 401.207031 759.203125 411.839844 773.175781 397.320312 C 787.128906 382.8125 777.230469 356.625 754.773438 357.386719 C 766.90625 366.714844 759.046875 389.371094 741.078125 384.011719 Z M 809.574219 331.554688 C 801.191406 339.792969 791.527344 349.210938 783.351562 357.386719 C 782.382812 358.355469 780.789062 359.523438 780.996094 360.917969 L 816.613281 360.917969 C 824.644531 353.085938 833.109375 343.304688 840.496094 335.078125 C 841.445312 334.019531 843.511719 333.148438 842.839844 331.554688 Z M 678.457031 347.605469 C 681.175781 350.535156 688.722656 361.058594 692.546875 362.085938 C 696.769531 363.234375 703.050781 361.699219 708.984375 361.699219 C 717.285156 361.699219 726.65625 361.175781 732.859375 362.480469 C 738.355469 351.949219 761.675781 347.351562 772.78125 356.222656 C 779.140625 350.710938 786.070312 343.710938 791.953125 337.816406 C 793.824219 335.957031 797.222656 333.265625 796.652344 331.554688 C 752.429688 331.8125 707.160156 331.03125 663.585938 331.953125 C 668.382812 337.09375 672.640625 341.328125 678.457031 347.605469 Z M 817.792969 323.722656 L 836.964844 323.722656 C 843.253906 323.722656 850.34375 322.605469 854.574219 325.296875 C 857.414062 331.773438 850.492188 336.125 847.140625 339.773438 C 821.71875 367.476562 795.523438 396.5 770.042969 424.328125 L 770.042969 531.96875 L 806.835938 531.96875 C 810.730469 531.96875 816.574219 531.382812 818.175781 532.757812 C 819.652344 534.003906 820.976562 553.804688 818.574219 556.632812 C 815.941406 559.71875 793.804688 557.808594 787.257812 557.808594 L 706.246094 557.808594 C 701.496094 557.808594 692.777344 558.550781 690.980469 557.027344 C 689.070312 555.394531 688.828125 535.222656 690.589844 533.144531 C 693.125 530.167969 708.398438 531.96875 714.074219 531.96875 L 738.730469 531.96875 C 739.449219 500.796875 739.121094 470.988281 739.121094 438.808594 C 739.121094 434.277344 740.035156 428.9375 739.121094 425.496094 C 738.296875 422.402344 731.945312 416.972656 728.164062 412.976562 C 705.011719 388.480469 683.289062 365.675781 660.0625 340.171875 C 656.8125 336.601562 649.96875 330.765625 651.453125 326.464844 C 652.734375 322.753906 661.464844 323.722656 668.28125 323.722656 L 785.695312 323.722656 C 792.328125 323.722656 800.050781 324.902344 804.878906 323.722656 C 808.359375 322.882812 812.144531 317.621094 815.4375 314.328125 C 819.117188 310.660156 822.476562 307.296875 825.226562 304.546875 C 831.011719 298.765625 839.585938 288.539062 845.179688 284.976562 C 846.644531 284.042969 849.996094 283.996094 850.667969 286.933594 C 851.628906 291.136719 846.230469 294.113281 843.234375 297.109375 C 834.691406 305.648438 825.117188 315.921875 817.792969 323.722656 " fill-opacity="1" fill-rule="evenodd"/></g><path fill="#000000" d="M 764.167969 306.894531 C 774.125 306.683594 772.871094 291.078125 763.386719 292.023438 C 754.113281 292.941406 754.644531 307.097656 764.167969 306.894531 Z M 761.042969 286.152344 C 772.367188 284.078125 780.976562 294.007812 776.695312 304.9375 C 772.503906 315.652344 755.160156 314.914062 751.253906 304.9375 C 747.753906 295.992188 753.273438 287.570312 761.042969 286.152344 " fill-opacity="1" fill-rule="evenodd"/><g fill="#000000" fill-opacity="1"><g transform="translate(318.065924, 980.718431)"><g><path d="M 6.453125 -4.703125 L 6.453125 0 L 71.609375 0 L 71.609375 -4.703125 L 36.984375 -4.703125 L 55.46875 -61.34375 L 114.46875 -61.34375 L 133.546875 -4.703125 L 103.3125 -4.703125 L 103.3125 0 L 189.3125 0 L 189.3125 -4.703125 L 163.765625 -4.703125 L 99.5 -199.875 L 95.96875 -199.875 L 31.703125 -4.703125 Z M 84.828125 -149.984375 L 113 -66.03125 L 57.234375 -66.03125 Z M 84.828125 -149.984375 "/></g></g></g><g fill="#000000" fill-opacity="1"><g transform="translate(512.064698, 980.718431)"><g><path d="M 52.25 -98.03125 L 52.25 -115.046875 L 6.453125 -115.046875 L 6.453125 -110.359375 L 27 -110.359375 L 27 -4.703125 L 6.453125 -4.703125 L 6.453125 0 L 72.78125 0 L 72.78125 -4.703125 L 52.25 -4.703125 L 52.25 -85.109375 C 52.25 -88.242188 53.175781 -91.472656 55.03125 -94.796875 C 56.882812 -98.128906 59.328125 -101.164062 62.359375 -103.90625 C 65.398438 -106.644531 68.78125 -108.84375 72.5 -110.5 C 76.21875 -112.164062 79.835938 -113 83.359375 -113 C 85.503906 -113 87.410156 -112.847656 89.078125 -112.546875 C 90.742188 -112.253906 91.578125 -111.523438 91.578125 -110.359375 C 91.578125 -109.378906 91.085938 -108.691406 90.109375 -108.296875 C 88.929688 -107.515625 87.554688 -106.191406 85.984375 -104.328125 C 84.421875 -102.472656 83.640625 -99.59375 83.640625 -95.6875 C 83.640625 -91.570312 85.007812 -88.191406 87.75 -85.546875 C 90.488281 -82.910156 94.109375 -81.59375 98.609375 -81.59375 C 102.523438 -81.59375 105.953125 -82.910156 108.890625 -85.546875 C 111.828125 -88.191406 113.296875 -91.863281 113.296875 -96.5625 C 113.296875 -100.476562 112.507812 -103.753906 110.9375 -106.390625 C 109.375 -109.035156 107.367188 -111.1875 104.921875 -112.84375 C 102.472656 -114.507812 99.632812 -115.734375 96.40625 -116.515625 C 93.1875 -117.296875 89.910156 -117.6875 86.578125 -117.6875 C 81.878906 -117.6875 77.671875 -117 73.953125 -115.625 C 70.242188 -114.257812 66.921875 -112.597656 63.984375 -110.640625 C 61.046875 -108.691406 58.597656 -106.59375 56.640625 -104.34375 C 54.679688 -102.09375 53.21875 -99.988281 52.25 -98.03125 Z M 52.25 -98.03125 "/></g></g></g><g fill="#000000" fill-opacity="1"><g transform="translate(629.461853, 980.718431)"><g><path d="M 51.953125 -115.046875 L 51.953125 -161.125 L 26.703125 -148.515625 L 26.703125 -115.046875 L 6.75 -115.046875 L 6.75 -110.359375 L 26.703125 -110.359375 L 26.703125 -31.109375 C 26.703125 -20.148438 29.632812 -11.539062 35.5 -5.28125 C 41.375 0.976562 49.890625 4.109375 61.046875 4.109375 C 72.585938 4.109375 80.753906 1.8125 85.546875 -2.78125 C 90.347656 -7.382812 93.429688 -13.695312 94.796875 -21.71875 C 94.992188 -22.695312 95.09375 -23.285156 95.09375 -23.484375 C 95.09375 -23.679688 95.09375 -23.972656 95.09375 -24.359375 C 95.09375 -25.921875 94.503906 -26.703125 93.328125 -26.703125 C 91.765625 -26.703125 90.882812 -25.726562 90.6875 -23.78125 C 89.707031 -17.125 87.457031 -11.882812 83.9375 -8.0625 C 80.414062 -4.25 76.113281 -2.34375 71.03125 -2.34375 C 64.175781 -2.34375 59.28125 -4.691406 56.34375 -9.390625 C 53.414062 -14.085938 51.953125 -21.132812 51.953125 -30.53125 L 51.953125 -110.359375 L 80.421875 -110.359375 L 80.421875 -115.046875 Z M 51.953125 -115.046875 "/></g></g></g><g fill="#000000" fill-opacity="1"><g transform="translate(728.662401, 980.718431)"><g><path d="M 8.8125 -115.046875 L 8.8125 -110.359375 L 28.171875 -110.359375 L 77.1875 1.171875 L 60.171875 46.078125 C 57.628906 52.535156 54.835938 57.328125 51.796875 60.453125 C 48.765625 63.585938 45.878906 65.15625 43.140625 65.15625 C 41.578125 65.15625 40.550781 64.765625 40.0625 63.984375 C 39.570312 63.203125 39.035156 62.222656 38.453125 61.046875 C 37.273438 58.503906 35.804688 56.597656 34.046875 55.328125 C 32.285156 54.054688 29.9375 53.421875 27 53.421875 C 23.675781 53.421875 21.132812 54.492188 19.375 56.640625 C 17.613281 58.796875 16.734375 61.34375 16.734375 64.28125 C 16.734375 68 17.953125 70.984375 20.390625 73.234375 C 22.835938 75.484375 26.609375 76.609375 31.703125 76.609375 C 38.546875 76.609375 44.898438 74.015625 50.765625 68.828125 C 56.640625 63.640625 61.238281 56.546875 64.5625 47.546875 L 125.03125 -110.359375 L 144.40625 -110.359375 L 144.40625 -115.046875 L 98.03125 -115.046875 L 98.03125 -110.359375 L 119.75 -110.359375 L 89.21875 -30.53125 L 55.171875 -110.359375 L 77.78125 -110.359375 L 77.78125 -115.046875 Z M 8.8125 -115.046875 "/></g></g></g><g fill="#000000" fill-opacity="1"><g transform="translate(877.169772, 980.718431)"><g><path d="M 83.359375 -117.6875 L 76.609375 -110.9375 C 70.535156 -116.414062 63.097656 -119.15625 54.296875 -119.15625 C 48.035156 -119.15625 42.457031 -118.128906 37.5625 -116.078125 C 32.675781 -114.023438 28.617188 -111.238281 25.390625 -107.71875 C 22.160156 -104.195312 19.710938 -100.1875 18.046875 -95.6875 C 16.390625 -91.1875 15.5625 -86.585938 15.5625 -81.890625 C 15.5625 -74.648438 17.660156 -68.289062 21.859375 -62.8125 C 26.066406 -57.332031 32.378906 -53.613281 40.796875 -51.65625 C 43.335938 -51.070312 46.171875 -50.4375 49.296875 -49.75 C 52.429688 -49.0625 55.613281 -48.273438 58.84375 -47.390625 C 62.070312 -46.515625 65.203125 -45.535156 68.234375 -44.453125 C 71.265625 -43.378906 73.957031 -42.160156 76.3125 -40.796875 C 80.226562 -38.640625 82.914062 -36.09375 84.375 -33.15625 C 85.84375 -30.226562 86.578125 -27.195312 86.578125 -24.0625 C 86.578125 -19.957031 85.550781 -16.390625 83.5 -13.359375 C 81.445312 -10.328125 78.851562 -7.878906 75.71875 -6.015625 C 72.59375 -4.160156 69.269531 -2.789062 65.75 -1.90625 C 62.226562 -1.03125 58.898438 -0.59375 55.765625 -0.59375 C 46.765625 -0.59375 38.835938 -3.085938 31.984375 -8.078125 C 25.140625 -13.066406 20.347656 -20.742188 17.609375 -31.109375 C 17.023438 -32.867188 16.242188 -33.75 15.265625 -33.75 C 14.085938 -33.75 13.5 -32.96875 13.5 -31.40625 L 13.5 0 C 13.5 1.5625 14.085938 2.34375 15.265625 2.34375 C 16.046875 2.34375 16.726562 1.851562 17.3125 0.875 L 23.484375 -8.21875 C 27.003906 -4.5 31.453125 -1.515625 36.828125 0.734375 C 42.210938 2.984375 48.816406 4.109375 56.640625 4.109375 C 63.097656 4.109375 68.769531 3.082031 73.65625 1.03125 C 78.550781 -1.019531 82.710938 -3.851562 86.140625 -7.46875 C 89.566406 -11.09375 92.160156 -15.300781 93.921875 -20.09375 C 95.679688 -24.894531 96.5625 -30.132812 96.5625 -35.8125 C 96.5625 -43.238281 94.703125 -50.28125 90.984375 -56.9375 C 87.265625 -63.59375 80.222656 -68.679688 69.859375 -72.203125 C 68.097656 -72.785156 65.847656 -73.421875 63.109375 -74.109375 C 60.367188 -74.796875 57.476562 -75.53125 54.4375 -76.3125 C 51.40625 -77.09375 48.375 -77.875 45.34375 -78.65625 C 42.3125 -79.4375 39.816406 -80.125 37.859375 -80.71875 C 33.941406 -82.082031 31.148438 -83.789062 29.484375 -85.84375 C 27.828125 -87.90625 27 -90.789062 27 -94.5 C 27 -99.59375 29.441406 -104.191406 34.328125 -108.296875 C 39.222656 -112.410156 45.390625 -114.46875 52.828125 -114.46875 C 57.523438 -114.46875 61.679688 -113.585938 65.296875 -111.828125 C 68.921875 -110.066406 71.957031 -107.816406 74.40625 -105.078125 C 76.851562 -102.335938 78.804688 -99.253906 80.265625 -95.828125 C 81.734375 -92.398438 82.765625 -89.023438 83.359375 -85.703125 C 83.546875 -84.523438 84.128906 -83.9375 85.109375 -83.9375 C 85.890625 -83.9375 86.28125 -84.523438 86.28125 -85.703125 L 86.28125 -117.109375 C 86.28125 -118.472656 85.988281 -119.15625 85.40625 -119.15625 C 85.019531 -119.15625 84.335938 -118.664062 83.359375 -117.6875 Z M 83.359375 -117.6875 "/></g></g></g><g fill="#000000" fill-opacity="1"><g transform="translate(981.653267, 980.718431)"><g><path d="M 40.203125 -50.78125 L 40.203125 -63.6875 C 40.203125 -73.28125 40.789062 -81.300781 41.96875 -87.75 C 43.144531 -94.207031 44.953125 -99.441406 47.390625 -103.453125 C 49.835938 -107.460938 52.921875 -110.300781 56.640625 -111.96875 C 60.359375 -113.632812 64.765625 -114.46875 69.859375 -114.46875 C 77.097656 -114.46875 82.035156 -113.535156 84.671875 -111.671875 C 87.316406 -109.816406 88.640625 -108.5 88.640625 -107.71875 C 88.640625 -106.9375 88.34375 -106.25 87.75 -105.65625 C 86.382812 -104.09375 85.359375 -102.476562 84.671875 -100.8125 C 83.984375 -99.15625 83.640625 -97.050781 83.640625 -94.5 C 83.640625 -90.59375 84.910156 -87.609375 87.453125 -85.546875 C 90.003906 -83.492188 92.941406 -82.46875 96.265625 -82.46875 C 100.179688 -82.46875 103.3125 -83.640625 105.65625 -85.984375 C 108.007812 -88.335938 109.1875 -91.375 109.1875 -95.09375 C 109.1875 -98.8125 107.910156 -102.1875 105.359375 -105.21875 C 102.816406 -108.25 99.640625 -110.789062 95.828125 -112.84375 C 92.015625 -114.90625 87.859375 -116.472656 83.359375 -117.546875 C 78.859375 -118.617188 74.550781 -119.15625 70.4375 -119.15625 C 62.8125 -119.15625 55.378906 -117.640625 48.140625 -114.609375 C 40.898438 -111.578125 34.441406 -107.367188 28.765625 -101.984375 C 23.085938 -96.609375 18.488281 -90.101562 14.96875 -82.46875 C 11.445312 -74.84375 9.6875 -66.429688 9.6875 -57.234375 C 9.6875 -47.835938 11.394531 -39.375 14.8125 -31.84375 C 18.238281 -24.3125 22.738281 -17.851562 28.3125 -12.46875 C 33.894531 -7.09375 40.253906 -2.984375 47.390625 -0.140625 C 54.535156 2.691406 61.726562 4.109375 68.96875 4.109375 C 76.207031 4.109375 82.566406 2.984375 88.046875 0.734375 C 93.523438 -1.515625 98.125 -4.347656 101.84375 -7.765625 C 105.5625 -11.191406 108.492188 -14.8125 110.640625 -18.625 C 112.796875 -22.445312 114.363281 -25.925781 115.34375 -29.0625 C 115.738281 -30.226562 115.9375 -31.007812 115.9375 -31.40625 C 115.9375 -33.164062 115.148438 -34.046875 113.578125 -34.046875 C 112.410156 -34.046875 111.53125 -33.066406 110.9375 -31.109375 C 109.769531 -27.390625 108.007812 -23.71875 105.65625 -20.09375 C 103.3125 -16.476562 100.425781 -13.203125 97 -10.265625 C 93.570312 -7.335938 89.5625 -4.992188 84.96875 -3.234375 C 80.375 -1.472656 75.335938 -0.59375 69.859375 -0.59375 C 63.785156 -0.59375 58.84375 -1.472656 55.03125 -3.234375 C 51.21875 -4.992188 48.1875 -7.878906 45.9375 -11.890625 C 43.6875 -15.898438 42.164062 -21.082031 41.375 -27.4375 C 40.59375 -33.800781 40.203125 -41.582031 40.203125 -50.78125 Z M 40.203125 -50.78125 "/></g></g></g><g fill="#000000" fill-opacity="1"><g transform="translate(1101.985367, 980.718431)"><g><path d="M 57.8125 -115.046875 L 10.5625 -115.046875 L 10.5625 -110.359375 L 32.578125 -110.359375 L 32.578125 -4.703125 L 10.5625 -4.703125 L 10.5625 0 L 79.828125 0 L 79.828125 -4.703125 L 57.8125 -4.703125 Z M 60.171875 -169.34375 C 60.171875 -173.65625 58.703125 -177.273438 55.765625 -180.203125 C 52.828125 -183.140625 49.207031 -184.609375 44.90625 -184.609375 C 40.601562 -184.609375 36.984375 -183.140625 34.046875 -180.203125 C 31.109375 -177.273438 29.640625 -173.65625 29.640625 -169.34375 C 29.640625 -165.039062 31.109375 -161.421875 34.046875 -158.484375 C 36.984375 -155.554688 40.601562 -154.09375 44.90625 -154.09375 C 49.207031 -154.09375 52.828125 -155.554688 55.765625 -158.484375 C 58.703125 -161.421875 60.171875 -165.039062 60.171875 -169.34375 Z M 60.171875 -169.34375 "/></g></g></g><g fill="#000000" fill-opacity="1"><g transform="translate(100.934285, 800.539432)"><g><path d="M 6.125 -9.8125 L 8.359375 -9.8125 C 8.773438 -9.8125 9.101562 -9.75 9.34375 -9.625 C 9.59375 -9.5 9.785156 -9.320312 9.921875 -9.09375 C 10.066406 -8.875 10.175781 -8.601562 10.25 -8.28125 C 10.332031 -7.957031 10.410156 -7.597656 10.484375 -7.203125 C 10.546875 -6.929688 10.625 -6.796875 10.71875 -6.796875 C 10.832031 -6.796875 10.890625 -6.921875 10.890625 -7.171875 L 10.890625 -12.921875 C 10.890625 -13.148438 10.832031 -13.265625 10.71875 -13.265625 C 10.625 -13.265625 10.546875 -13.132812 10.484375 -12.875 C 10.410156 -12.46875 10.332031 -12.101562 10.25 -11.78125 C 10.175781 -11.46875 10.066406 -11.195312 9.921875 -10.96875 C 9.785156 -10.738281 9.59375 -10.5625 9.34375 -10.4375 C 9.101562 -10.320312 8.773438 -10.265625 8.359375 -10.265625 L 6.125 -10.265625 L 6.125 -18.59375 L 10.4375 -18.59375 C 11.070312 -18.59375 11.609375 -18.4375 12.046875 -18.125 C 12.484375 -17.8125 12.832031 -17.421875 13.09375 -16.953125 C 13.351562 -16.492188 13.546875 -16.003906 13.671875 -15.484375 C 13.796875 -14.960938 13.867188 -14.5 13.890625 -14.09375 C 13.890625 -13.820312 13.960938 -13.6875 14.109375 -13.6875 C 14.242188 -13.6875 14.3125 -13.8125 14.3125 -14.0625 L 14.3125 -18.359375 C 14.3125 -18.816406 14.078125 -19.046875 13.609375 -19.046875 L 0.9375 -19.046875 L 0.9375 -18.59375 L 3.375 -18.59375 L 3.375 -0.453125 L 0.96875 -0.453125 L 0.96875 0 L 14.28125 0 C 14.832031 0 15.109375 -0.300781 15.109375 -0.90625 L 15.109375 -5.15625 C 15.109375 -5.613281 15.03125 -5.84375 14.875 -5.84375 C 14.75 -5.84375 14.644531 -5.644531 14.5625 -5.25 C 14.414062 -4.53125 14.253906 -3.875 14.078125 -3.28125 C 13.910156 -2.695312 13.6875 -2.191406 13.40625 -1.765625 C 13.125 -1.347656 12.765625 -1.023438 12.328125 -0.796875 C 11.890625 -0.566406 11.34375 -0.453125 10.6875 -0.453125 L 6.125 -0.453125 Z M 6.125 -9.8125 "/></g></g></g><g fill="#000000" fill-opacity="1"><g transform="translate(117.199606, 800.539432)"><g><path d="M 12.78125 -19.25 L 11.96875 -18.203125 C 11.625 -18.390625 11.300781 -18.554688 11 -18.703125 C 10.695312 -18.859375 10.390625 -18.984375 10.078125 -19.078125 C 9.765625 -19.171875 9.429688 -19.238281 9.078125 -19.28125 C 8.734375 -19.332031 8.332031 -19.359375 7.875 -19.359375 C 6.945312 -19.359375 6.117188 -19.207031 5.390625 -18.90625 C 4.671875 -18.601562 4.054688 -18.195312 3.546875 -17.6875 C 3.035156 -17.175781 2.644531 -16.585938 2.375 -15.921875 C 2.113281 -15.265625 1.984375 -14.566406 1.984375 -13.828125 C 1.984375 -12.828125 2.289062 -11.910156 2.90625 -11.078125 C 3.519531 -10.242188 4.476562 -9.613281 5.78125 -9.1875 C 6.40625 -8.976562 6.929688 -8.804688 7.359375 -8.671875 C 7.796875 -8.535156 8.203125 -8.40625 8.578125 -8.28125 C 8.960938 -8.164062 9.347656 -8.035156 9.734375 -7.890625 C 10.117188 -7.753906 10.566406 -7.5625 11.078125 -7.3125 C 11.722656 -7.007812 12.15625 -6.585938 12.375 -6.046875 C 12.601562 -5.515625 12.71875 -4.972656 12.71875 -4.421875 C 12.71875 -3.742188 12.585938 -3.125 12.328125 -2.5625 C 12.066406 -2.007812 11.71875 -1.539062 11.28125 -1.15625 C 10.84375 -0.78125 10.335938 -0.488281 9.765625 -0.28125 C 9.203125 -0.0703125 8.628906 0.03125 8.046875 0.03125 C 7.367188 0.03125 6.71875 -0.0859375 6.09375 -0.328125 C 5.46875 -0.566406 4.890625 -0.898438 4.359375 -1.328125 C 3.835938 -1.765625 3.378906 -2.300781 2.984375 -2.9375 C 2.597656 -3.582031 2.300781 -4.304688 2.09375 -5.109375 C 2.039062 -5.347656 1.9375 -5.46875 1.78125 -5.46875 C 1.65625 -5.46875 1.59375 -5.335938 1.59375 -5.078125 L 1.59375 0 C 1.59375 0.25 1.675781 0.375 1.84375 0.375 C 1.957031 0.375 2.078125 0.273438 2.203125 0.078125 L 3.234375 -1.390625 C 3.460938 -1.179688 3.738281 -0.960938 4.0625 -0.734375 C 4.394531 -0.503906 4.765625 -0.296875 5.171875 -0.109375 C 5.578125 0.078125 6.007812 0.226562 6.46875 0.34375 C 6.9375 0.46875 7.414062 0.53125 7.90625 0.53125 C 8.8125 0.53125 9.648438 0.363281 10.421875 0.03125 C 11.203125 -0.289062 11.875 -0.742188 12.4375 -1.328125 C 13.007812 -1.910156 13.457031 -2.601562 13.78125 -3.40625 C 14.113281 -4.21875 14.28125 -5.085938 14.28125 -6.015625 C 14.28125 -7.273438 13.984375 -8.34375 13.390625 -9.21875 C 12.796875 -10.101562 11.859375 -10.734375 10.578125 -11.109375 C 10.140625 -11.242188 9.726562 -11.359375 9.34375 -11.453125 C 8.96875 -11.546875 8.582031 -11.648438 8.1875 -11.765625 C 7.789062 -11.878906 7.375 -12.003906 6.9375 -12.140625 C 6.507812 -12.285156 6.03125 -12.460938 5.5 -12.671875 C 4.914062 -12.898438 4.472656 -13.25 4.171875 -13.71875 C 3.867188 -14.1875 3.71875 -14.734375 3.71875 -15.359375 C 3.71875 -15.941406 3.835938 -16.457031 4.078125 -16.90625 C 4.328125 -17.351562 4.644531 -17.71875 5.03125 -18 C 5.414062 -18.28125 5.859375 -18.488281 6.359375 -18.625 C 6.859375 -18.769531 7.363281 -18.84375 7.875 -18.84375 C 8.65625 -18.84375 9.335938 -18.710938 9.921875 -18.453125 C 10.503906 -18.191406 10.992188 -17.84375 11.390625 -17.40625 C 11.785156 -16.96875 12.101562 -16.460938 12.34375 -15.890625 C 12.582031 -15.328125 12.738281 -14.742188 12.8125 -14.140625 C 12.832031 -13.953125 12.914062 -13.859375 13.0625 -13.859375 C 13.195312 -13.859375 13.265625 -13.953125 13.265625 -14.140625 L 13.265625 -19.1875 C 13.265625 -19.375 13.207031 -19.46875 13.09375 -19.46875 C 13 -19.46875 12.894531 -19.394531 12.78125 -19.25 Z M 12.78125 -19.25 "/></g></g></g><g fill="#000000" fill-opacity="1"><g transform="translate(132.558152, 800.539432)"><g><path d="M 10.234375 -0.453125 L 10.234375 -18.59375 L 12.671875 -18.59375 C 13.535156 -18.59375 14.289062 -18.144531 14.9375 -17.25 C 15.59375 -16.363281 16.023438 -15.160156 16.234375 -13.640625 L 16.84375 -13.640625 L 16.40625 -18.5625 C 16.382812 -18.882812 16.195312 -19.046875 15.84375 -19.046875 L 1.875 -19.046875 C 1.507812 -19.046875 1.316406 -18.882812 1.296875 -18.5625 L 0.875 -13.640625 L 1.46875 -13.640625 C 1.675781 -15.160156 2.101562 -16.363281 2.75 -17.25 C 3.40625 -18.144531 4.171875 -18.59375 5.046875 -18.59375 L 7.484375 -18.59375 L 7.484375 -0.453125 L 5.046875 -0.453125 L 5.046875 0 L 12.671875 0 L 12.671875 -0.453125 Z M 10.234375 -0.453125 "/></g></g></g><g fill="#000000" fill-opacity="1"><g transform="translate(150.098629, 800.539432)"><g><path d="M 4.625 -1.421875 C 4.625 -1.847656 4.472656 -2.207031 4.171875 -2.5 C 3.878906 -2.800781 3.519531 -2.953125 3.09375 -2.953125 C 2.65625 -2.953125 2.289062 -2.800781 2 -2.5 C 1.707031 -2.207031 1.5625 -1.847656 1.5625 -1.421875 C 1.5625 -0.984375 1.707031 -0.617188 2 -0.328125 C 2.289062 -0.0351562 2.65625 0.109375 3.09375 0.109375 C 3.519531 0.109375 3.878906 -0.0351562 4.171875 -0.328125 C 4.472656 -0.617188 4.625 -0.984375 4.625 -1.421875 Z M 4.625 -1.421875 "/></g></g></g></svg>