<svg xmlns="http://www.w3.org/2000/svg" xmlns:xlink="http://www.w3.org/1999/xlink" width="1871" zoomAndPan="magnify" viewBox="0 0 1403.25 1199.999942" height="1600" preserveAspectRatio="xMidYMid meet" version="1.0"><defs><g/><clipPath id="fd593ccf87"><path d="M 178.605469 0.320312 L 1224 0.320312 L 1224 1199.679688 L 178.605469 1199.679688 Z M 178.605469 0.320312 " clip-rule="nonzero"/></clipPath><clipPath id="658ae26423"><path d="M 1223.453125 899.796875 L 1223.453125 300.179688 L 701.082031 0.320312 L 178.605469 300.179688 L 178.605469 899.796875 L 701.082031 1199.660156 L 1223.554688 899.796875 M 206.910156 883.519531 L 206.910156 316.460938 L 701.082031 32.980469 L 1195.144531 316.460938 L 1195.144531 883.519531 L 701.082031 1167.101562 L 206.910156 883.519531 " clip-rule="nonzero"/></clipPath><clipPath id="94a8da3182"><path d="M 873 632 L 919.242188 632 L 919.242188 678 L 873 678 Z M 873 632 " clip-rule="nonzero"/></clipPath><clipPath id="d9b40586a4"><path d="M 844 698 L 853 698 L 853 698.675781 L 844 698.675781 Z M 844 698 " clip-rule="nonzero"/></clipPath><clipPath id="781cf4e2a4"><path d="M 0.222656 657 L 144 657 L 144 698 L 0.222656 698 Z M 0.222656 657 " clip-rule="nonzero"/></clipPath><clipPath id="9a2c503481"><path d="M 1250.46875 640 L 1394 640 L 1394 681.933594 L 1250.46875 681.933594 Z M 1250.46875 640 " clip-rule="nonzero"/></clipPath><clipPath id="1160e7164e"><path d="M 721 62.945312 L 750 62.945312 L 750 90 L 721 90 Z M 721 62.945312 " clip-rule="nonzero"/></clipPath><clipPath id="80aa6b29c2"><path d="M 599.175781 134 L 803 134 L 803 408.511719 L 599.175781 408.511719 Z M 599.175781 134 " clip-rule="nonzero"/></clipPath></defs><g clip-path="url(#fd593ccf87)"><g clip-path="url(#658ae26423)"><path fill="#fcfcf4" d="M 178.605469 0.320312 L 1223.484375 0.320312 L 1223.484375 1199.679688 L 178.605469 1199.679688 Z M 178.605469 0.320312 " fill-opacity="1" fill-rule="nonzero"/></g></g><g fill="#fcfcf4" fill-opacity="1"><g transform="translate(1297.556436, 633.391849)"><g><path d="M 3.78125 -15.8125 C 3.707031 -15.8125 3.640625 -15.804688 3.578125 -15.796875 C 3.523438 -15.785156 3.460938 -15.769531 3.390625 -15.75 C 3.359375 -15.75 3.335938 -15.742188 3.328125 -15.734375 C 3.316406 -15.722656 3.300781 -15.71875 3.28125 -15.71875 C 3.113281 -15.71875 3.03125 -15.820312 3.03125 -16.03125 C 3.03125 -16.3125 3.148438 -16.578125 3.390625 -16.828125 C 3.628906 -17.078125 3.9375 -17.289062 4.3125 -17.46875 C 4.6875 -17.644531 5.097656 -17.78125 5.546875 -17.875 C 6.003906 -17.976562 6.457031 -18.03125 6.90625 -18.03125 C 8.1875 -18.03125 9.117188 -17.679688 9.703125 -16.984375 C 10.285156 -16.296875 10.578125 -15.273438 10.578125 -13.921875 C 10.578125 -12.691406 10.367188 -11.59375 9.953125 -10.625 C 9.535156 -9.664062 8.863281 -8.738281 7.9375 -7.84375 L 1.109375 -1.453125 L 1.109375 0 L 13.4375 0 L 13.75 -5.171875 L 13.75 -5.40625 C 13.75 -5.84375 13.679688 -6.0625 13.546875 -6.0625 C 13.453125 -6.0625 13.382812 -6 13.34375 -5.875 C 13.3125 -5.757812 13.257812 -5.546875 13.1875 -5.234375 C 12.988281 -4.328125 12.695312 -3.609375 12.3125 -3.078125 C 11.9375 -2.546875 11.328125 -2.28125 10.484375 -2.28125 L 2.671875 -2.28125 L 8.578125 -7.40625 C 9.242188 -7.976562 9.867188 -8.539062 10.453125 -9.09375 C 11.035156 -9.65625 11.546875 -10.21875 11.984375 -10.78125 C 12.421875 -11.34375 12.765625 -11.914062 13.015625 -12.5 C 13.273438 -13.09375 13.40625 -13.691406 13.40625 -14.296875 C 13.40625 -15.097656 13.234375 -15.769531 12.890625 -16.3125 C 12.554688 -16.863281 12.109375 -17.3125 11.546875 -17.65625 C 10.992188 -18 10.367188 -18.242188 9.671875 -18.390625 C 8.972656 -18.535156 8.28125 -18.609375 7.59375 -18.609375 C 6.78125 -18.609375 6.003906 -18.515625 5.265625 -18.328125 C 4.535156 -18.148438 3.890625 -17.878906 3.328125 -17.515625 C 2.773438 -17.148438 2.335938 -16.707031 2.015625 -16.1875 C 1.691406 -15.675781 1.53125 -15.085938 1.53125 -14.421875 C 1.53125 -13.859375 1.695312 -13.398438 2.03125 -13.046875 C 2.363281 -12.691406 2.828125 -12.515625 3.421875 -12.515625 C 3.890625 -12.515625 4.320312 -12.65625 4.71875 -12.9375 C 5.113281 -13.21875 5.3125 -13.644531 5.3125 -14.21875 C 5.3125 -14.59375 5.164062 -14.953125 4.875 -15.296875 C 4.59375 -15.640625 4.226562 -15.8125 3.78125 -15.8125 Z M 3.78125 -15.8125 "/></g></g></g><g fill="#fcfcf4" fill-opacity="1"><g transform="translate(1312.524677, 633.391849)"><g><path d="M 0.859375 -9.125 C 0.859375 -7.914062 1.019531 -6.738281 1.34375 -5.59375 C 1.675781 -4.457031 2.132812 -3.441406 2.71875 -2.546875 C 3.300781 -1.660156 4 -0.941406 4.8125 -0.390625 C 5.625 0.148438 6.523438 0.421875 7.515625 0.421875 C 8.492188 0.421875 9.390625 0.148438 10.203125 -0.390625 C 11.023438 -0.941406 11.726562 -1.660156 12.3125 -2.546875 C 12.894531 -3.441406 13.347656 -4.457031 13.671875 -5.59375 C 14.003906 -6.738281 14.171875 -7.914062 14.171875 -9.125 C 14.171875 -10.3125 14.003906 -11.476562 13.671875 -12.625 C 13.347656 -13.78125 12.894531 -14.800781 12.3125 -15.6875 C 11.726562 -16.582031 11.023438 -17.300781 10.203125 -17.84375 C 9.390625 -18.394531 8.492188 -18.671875 7.515625 -18.671875 C 6.523438 -18.671875 5.625 -18.394531 4.8125 -17.84375 C 4 -17.300781 3.300781 -16.582031 2.71875 -15.6875 C 2.132812 -14.800781 1.675781 -13.78125 1.34375 -12.625 C 1.019531 -11.476562 0.859375 -10.3125 0.859375 -9.125 Z M 7.515625 -0.03125 C 6.953125 -0.03125 6.445312 -0.132812 6 -0.34375 C 5.5625 -0.5625 5.1875 -0.9375 4.875 -1.46875 C 4.570312 -2.007812 4.335938 -2.726562 4.171875 -3.625 C 4.003906 -4.53125 3.921875 -5.671875 3.921875 -7.046875 L 3.921875 -11.21875 C 3.921875 -12.59375 4.003906 -13.726562 4.171875 -14.625 C 4.335938 -15.519531 4.570312 -16.238281 4.875 -16.78125 C 5.1875 -17.320312 5.5625 -17.695312 6 -17.90625 C 6.445312 -18.125 6.953125 -18.234375 7.515625 -18.234375 C 8.066406 -18.234375 8.566406 -18.128906 9.015625 -17.921875 C 9.460938 -17.710938 9.835938 -17.347656 10.140625 -16.828125 C 10.453125 -16.316406 10.691406 -15.601562 10.859375 -14.6875 C 11.023438 -13.78125 11.109375 -12.625 11.109375 -11.21875 L 11.109375 -7.046875 C 11.109375 -5.671875 11.023438 -4.53125 10.859375 -3.625 C 10.691406 -2.726562 10.453125 -2.007812 10.140625 -1.46875 C 9.835938 -0.9375 9.460938 -0.5625 9.015625 -0.34375 C 8.566406 -0.132812 8.066406 -0.03125 7.515625 -0.03125 Z M 7.515625 -0.03125 "/></g></g></g><g fill="#fcfcf4" fill-opacity="1"><g transform="translate(1327.492918, 633.391849)"><g><path d="M 3.78125 -15.8125 C 3.707031 -15.8125 3.640625 -15.804688 3.578125 -15.796875 C 3.523438 -15.785156 3.460938 -15.769531 3.390625 -15.75 C 3.359375 -15.75 3.335938 -15.742188 3.328125 -15.734375 C 3.316406 -15.722656 3.300781 -15.71875 3.28125 -15.71875 C 3.113281 -15.71875 3.03125 -15.820312 3.03125 -16.03125 C 3.03125 -16.3125 3.148438 -16.578125 3.390625 -16.828125 C 3.628906 -17.078125 3.9375 -17.289062 4.3125 -17.46875 C 4.6875 -17.644531 5.097656 -17.78125 5.546875 -17.875 C 6.003906 -17.976562 6.457031 -18.03125 6.90625 -18.03125 C 8.1875 -18.03125 9.117188 -17.679688 9.703125 -16.984375 C 10.285156 -16.296875 10.578125 -15.273438 10.578125 -13.921875 C 10.578125 -12.691406 10.367188 -11.59375 9.953125 -10.625 C 9.535156 -9.664062 8.863281 -8.738281 7.9375 -7.84375 L 1.109375 -1.453125 L 1.109375 0 L 13.4375 0 L 13.75 -5.171875 L 13.75 -5.40625 C 13.75 -5.84375 13.679688 -6.0625 13.546875 -6.0625 C 13.453125 -6.0625 13.382812 -6 13.34375 -5.875 C 13.3125 -5.757812 13.257812 -5.546875 13.1875 -5.234375 C 12.988281 -4.328125 12.695312 -3.609375 12.3125 -3.078125 C 11.9375 -2.546875 11.328125 -2.28125 10.484375 -2.28125 L 2.671875 -2.28125 L 8.578125 -7.40625 C 9.242188 -7.976562 9.867188 -8.539062 10.453125 -9.09375 C 11.035156 -9.65625 11.546875 -10.21875 11.984375 -10.78125 C 12.421875 -11.34375 12.765625 -11.914062 13.015625 -12.5 C 13.273438 -13.09375 13.40625 -13.691406 13.40625 -14.296875 C 13.40625 -15.097656 13.234375 -15.769531 12.890625 -16.3125 C 12.554688 -16.863281 12.109375 -17.3125 11.546875 -17.65625 C 10.992188 -18 10.367188 -18.242188 9.671875 -18.390625 C 8.972656 -18.535156 8.28125 -18.609375 7.59375 -18.609375 C 6.78125 -18.609375 6.003906 -18.515625 5.265625 -18.328125 C 4.535156 -18.148438 3.890625 -17.878906 3.328125 -17.515625 C 2.773438 -17.148438 2.335938 -16.707031 2.015625 -16.1875 C 1.691406 -15.675781 1.53125 -15.085938 1.53125 -14.421875 C 1.53125 -13.859375 1.695312 -13.398438 2.03125 -13.046875 C 2.363281 -12.691406 2.828125 -12.515625 3.421875 -12.515625 C 3.890625 -12.515625 4.320312 -12.65625 4.71875 -12.9375 C 5.113281 -13.21875 5.3125 -13.644531 5.3125 -14.21875 C 5.3125 -14.59375 5.164062 -14.953125 4.875 -15.296875 C 4.59375 -15.640625 4.226562 -15.8125 3.78125 -15.8125 Z M 3.78125 -15.8125 "/></g></g></g><g fill="#fcfcf4" fill-opacity="1"><g transform="translate(1342.461159, 633.391849)"><g><path d="M 0.859375 -9.125 C 0.859375 -7.914062 1.019531 -6.738281 1.34375 -5.59375 C 1.675781 -4.457031 2.132812 -3.441406 2.71875 -2.546875 C 3.300781 -1.660156 4 -0.941406 4.8125 -0.390625 C 5.625 0.148438 6.523438 0.421875 7.515625 0.421875 C 8.492188 0.421875 9.390625 0.148438 10.203125 -0.390625 C 11.023438 -0.941406 11.726562 -1.660156 12.3125 -2.546875 C 12.894531 -3.441406 13.347656 -4.457031 13.671875 -5.59375 C 14.003906 -6.738281 14.171875 -7.914062 14.171875 -9.125 C 14.171875 -10.3125 14.003906 -11.476562 13.671875 -12.625 C 13.347656 -13.78125 12.894531 -14.800781 12.3125 -15.6875 C 11.726562 -16.582031 11.023438 -17.300781 10.203125 -17.84375 C 9.390625 -18.394531 8.492188 -18.671875 7.515625 -18.671875 C 6.523438 -18.671875 5.625 -18.394531 4.8125 -17.84375 C 4 -17.300781 3.300781 -16.582031 2.71875 -15.6875 C 2.132812 -14.800781 1.675781 -13.78125 1.34375 -12.625 C 1.019531 -11.476562 0.859375 -10.3125 0.859375 -9.125 Z M 7.515625 -0.03125 C 6.953125 -0.03125 6.445312 -0.132812 6 -0.34375 C 5.5625 -0.5625 5.1875 -0.9375 4.875 -1.46875 C 4.570312 -2.007812 4.335938 -2.726562 4.171875 -3.625 C 4.003906 -4.53125 3.921875 -5.671875 3.921875 -7.046875 L 3.921875 -11.21875 C 3.921875 -12.59375 4.003906 -13.726562 4.171875 -14.625 C 4.335938 -15.519531 4.570312 -16.238281 4.875 -16.78125 C 5.1875 -17.320312 5.5625 -17.695312 6 -17.90625 C 6.445312 -18.125 6.953125 -18.234375 7.515625 -18.234375 C 8.066406 -18.234375 8.566406 -18.128906 9.015625 -17.921875 C 9.460938 -17.710938 9.835938 -17.347656 10.140625 -16.828125 C 10.453125 -16.316406 10.691406 -15.601562 10.859375 -14.6875 C 11.023438 -13.78125 11.109375 -12.625 11.109375 -11.21875 L 11.109375 -7.046875 C 11.109375 -5.671875 11.023438 -4.53125 10.859375 -3.625 C 10.691406 -2.726562 10.453125 -2.007812 10.140625 -1.46875 C 9.835938 -0.9375 9.460938 -0.5625 9.015625 -0.34375 C 8.566406 -0.132812 8.066406 -0.03125 7.515625 -0.03125 Z M 7.515625 -0.03125 "/></g></g></g><g clip-path="url(#94a8da3182)"><path fill="#fcfcf4" d="M 919.171875 633.183594 C 913.582031 644.238281 905.097656 654.921875 896.191406 663.824219 C 892.976562 667.042969 889.605469 670.125 886.105469 673.027344 C 885.328125 671.363281 884.253906 669.800781 882.878906 668.429688 C 881.507812 667.054688 879.945312 665.976562 878.28125 665.203125 C 881.183594 661.699219 884.265625 658.332031 887.484375 655.117188 C 896.386719 646.210938 907.070312 637.726562 918.125 632.136719 C 918.472656 631.960938 918.839844 631.996094 919.074219 632.234375 C 919.308594 632.46875 919.347656 632.832031 919.171875 633.183594 Z M 883.648438 675.019531 C 882.71875 675.753906 881.78125 676.476562 880.835938 677.183594 C 880.589844 677.367188 880.3125 677.433594 880.050781 677.367188 C 879.789062 677.304688 879.613281 677.128906 879.542969 676.867188 C 879.222656 675.601562 878.59375 674.492188 877.703125 673.605469 C 876.816406 672.714844 875.707031 672.085938 874.4375 671.761719 C 874.179688 671.695312 874.003906 671.519531 873.9375 671.257812 C 873.875 670.992188 873.941406 670.71875 874.125 670.472656 C 874.832031 669.527344 875.554688 668.589844 876.289062 667.660156 C 877.902344 668.300781 879.417969 669.273438 880.726562 670.582031 C 882.035156 671.886719 883.007812 673.402344 883.648438 675.019531 Z M 883.648438 675.019531 " fill-opacity="1" fill-rule="evenodd"/></g><path fill="#fcfcf4" d="M 849.941406 697.488281 C 876.25 699.789062 881.339844 680.261719 874.570312 674.820312 C 870.347656 671.425781 866.078125 672.074219 863.167969 674.8125 C 857.632812 680.027344 860.597656 690.71875 849.941406 697.488281 Z M 849.941406 697.488281 " fill-opacity="1" fill-rule="evenodd"/><g clip-path="url(#d9b40586a4)"><path fill="#fcfcf4" d="M 849.640625 698.160156 C 849.578125 699.441406 845.578125 704.027344 844.898438 708.125 C 843.605469 715.882812 855.96875 717.324219 850.734375 703.050781 C 850.222656 701.65625 849.75 700.113281 849.640625 698.160156 Z M 849.640625 698.160156 " fill-opacity="1" fill-rule="evenodd"/></g><g clip-path="url(#781cf4e2a4)"><path fill="#fcfcf4" d="M 4.542969 660.519531 L 0.222656 660.519531 L 45.234375 660.519531 C 44.121094 661.484375 43.011719 662.445312 41.875 663.410156 C 36.542969 667.929688 31.0625 672.273438 25.507812 676.421875 C 24.617188 677.085938 23.679688 677.777344 22.691406 678.496094 C 20.421875 680.148438 18.519531 682.347656 17.359375 684.667969 C 15.1875 689.039062 15.382812 693.308594 17.902344 695.800781 C 20.421875 698.296875 24.691406 698.519531 29.0625 696.34375 C 31.382812 695.183594 33.554688 693.308594 35.234375 691.039062 C 35.925781 690.097656 36.617188 689.160156 37.308594 688.222656 C 43.675781 679.679688 50.515625 671.382812 57.726562 663.386719 C 58.589844 662.421875 59.480469 661.460938 60.367188 660.496094 L 93.15625 660.496094 C 93.203125 660.546875 93.253906 660.621094 93.304688 660.667969 C 101.5 669.53125 109.226562 678.792969 116.363281 688.371094 C 117.054688 689.308594 117.769531 690.246094 118.4375 691.183594 C 120.089844 693.457031 122.265625 695.308594 124.558594 696.46875 C 128.878906 698.617188 133.101562 698.417969 135.570312 695.949219 C 138.039062 693.480469 138.238281 689.257812 136.089844 684.9375 C 134.953125 682.644531 133.078125 680.46875 130.804688 678.816406 C 129.84375 678.101562 128.878906 677.410156 127.992188 676.742188 C 121.203125 671.679688 114.5625 666.324219 108.117188 660.695312 C 108.042969 660.644531 107.992188 660.570312 107.917969 660.519531 L 143.742188 660.519531 L 143.742188 657.632812 L 4.542969 657.632812 Z M 4.542969 660.519531 " fill-opacity="1" fill-rule="nonzero"/></g><path fill="#fcfcf4" d="M 90.957031 623.808594 L 93.847656 620.917969 L 98.464844 616.328125 C 101.082031 613.683594 104.785156 612.574219 108.3125 613.339844 C 112.757812 614.277344 117.746094 613.808594 122.78125 612.007812 C 127.917969 610.15625 132.855469 606.96875 137.027344 602.796875 C 149.027344 590.796875 151.621094 573.910156 142.832031 565.121094 C 134.039062 556.332031 117.128906 558.925781 105.152344 570.921875 C 101.007812 575.070312 97.820312 579.984375 95.96875 585.09375 C 94.144531 590.105469 93.671875 595.09375 94.585938 599.511719 C 95.351562 603.191406 94.242188 606.945312 91.625 609.539062 L 77.355469 623.808594 L 74.367188 623.808594 L 63.847656 613.289062 C 61.378906 610.820312 60.121094 607.464844 60.34375 604.082031 C 60.863281 596.425781 58.070312 588.921875 52.613281 583.488281 L 24.742188 557.492188 C 24.148438 556.925781 23.210938 556.949219 22.617188 557.515625 C 22.050781 558.085938 22.023438 559.023438 22.566406 559.617188 L 46.144531 585.785156 C 46.46875 586.15625 46.640625 586.625 46.640625 587.121094 C 46.617188 587.613281 46.417969 588.082031 46.074219 588.429688 C 45.355469 589.144531 44.195312 589.167969 43.429688 588.476562 L 17.011719 564.355469 C 16.667969 564.035156 16.125 564.058594 15.777344 564.378906 L 15.308594 564.847656 C 14.964844 565.195312 14.964844 565.738281 15.285156 566.085938 L 39.308594 592.402344 C 39.679688 592.796875 39.875 593.316406 39.851562 593.859375 C 39.824219 594.402344 39.628906 594.898438 39.234375 595.292969 L 39.183594 595.339844 C 38.8125 595.710938 38.296875 595.933594 37.753906 595.957031 C 37.207031 595.984375 36.691406 595.785156 36.296875 595.414062 L 10 571.367188 C 9.65625 571.046875 9.113281 571.046875 8.765625 571.390625 L 8.296875 571.863281 C 7.953125 572.207031 7.953125 572.75 8.273438 573.097656 L 32.394531 599.511719 C 33.085938 600.277344 33.0625 601.4375 32.34375 602.15625 C 32 602.5 31.53125 602.699219 31.035156 602.722656 C 30.542969 602.746094 30.074219 602.574219 29.703125 602.230469 L 3.558594 578.625 C 2.964844 578.082031 2.027344 578.109375 1.457031 578.675781 C 0.867188 579.269531 0.867188 580.183594 1.410156 580.800781 L 27.40625 608.699219 C 32.8125 614.105469 40.320312 616.917969 47.949219 616.402344 C 51.332031 616.179688 54.6875 617.460938 57.15625 619.90625 L 61.058594 623.808594 L 4.542969 623.808594 L 4.542969 626.695312 L 143.742188 626.695312 L 143.742188 623.808594 Z M 90.957031 623.808594 " fill-opacity="1" fill-rule="nonzero"/><g clip-path="url(#9a2c503481)"><path fill="#fcfcf4" d="M 1254.789062 643.714844 L 1250.46875 643.714844 L 1295.480469 643.714844 C 1294.367188 644.679688 1293.257812 645.640625 1292.121094 646.605469 C 1286.789062 651.121094 1281.308594 655.46875 1275.753906 659.617188 C 1274.863281 660.28125 1273.925781 660.972656 1272.9375 661.691406 C 1270.667969 663.34375 1268.765625 665.542969 1267.605469 667.863281 C 1265.433594 672.230469 1265.628906 676.503906 1268.148438 678.996094 C 1270.667969 681.492188 1274.9375 681.714844 1279.308594 679.539062 C 1281.628906 678.378906 1283.800781 676.503906 1285.480469 674.230469 C 1286.171875 673.292969 1286.863281 672.355469 1287.554688 671.417969 C 1293.921875 662.875 1300.761719 654.578125 1307.972656 646.578125 C 1308.835938 645.617188 1309.726562 644.652344 1310.613281 643.691406 L 1343.402344 643.691406 C 1343.449219 643.742188 1343.5 643.816406 1343.550781 643.863281 C 1351.746094 652.726562 1359.472656 661.984375 1366.609375 671.566406 C 1367.300781 672.503906 1368.015625 673.441406 1368.683594 674.378906 C 1370.335938 676.652344 1372.511719 678.503906 1374.804688 679.664062 C 1379.128906 681.8125 1383.347656 681.613281 1385.816406 679.144531 C 1388.285156 676.675781 1388.484375 672.453125 1386.335938 668.132812 C 1385.199219 665.835938 1383.324219 663.664062 1381.050781 662.011719 C 1380.089844 661.296875 1379.128906 660.605469 1378.238281 659.9375 C 1371.449219 654.875 1364.808594 649.519531 1358.363281 643.890625 C 1358.289062 643.839844 1358.238281 643.765625 1358.164062 643.714844 L 1393.988281 643.714844 L 1393.988281 640.828125 L 1254.789062 640.828125 Z M 1254.789062 643.714844 " fill-opacity="1" fill-rule="nonzero"/></g><path fill="#fcfcf4" d="M 1341.203125 607.003906 L 1344.09375 604.113281 L 1348.710938 599.523438 C 1351.328125 596.878906 1355.03125 595.769531 1358.5625 596.535156 C 1363.003906 597.472656 1367.992188 597.003906 1373.027344 595.203125 C 1378.164062 593.347656 1383.101562 590.164062 1387.273438 585.992188 C 1399.273438 573.992188 1401.867188 557.105469 1393.078125 548.316406 C 1384.285156 539.527344 1367.375 542.117188 1355.402344 554.117188 C 1351.253906 558.265625 1348.066406 563.179688 1346.214844 568.289062 C 1344.390625 573.300781 1343.917969 578.289062 1344.832031 582.707031 C 1345.597656 586.386719 1344.488281 590.140625 1341.871094 592.730469 L 1330.464844 604.140625 L 1327.601562 607.003906 L 1324.613281 607.003906 L 1314.09375 596.484375 C 1311.625 594.015625 1310.367188 590.660156 1310.589844 587.277344 C 1311.109375 579.621094 1308.316406 572.117188 1302.859375 566.683594 L 1274.988281 540.6875 C 1274.394531 540.121094 1273.457031 540.144531 1272.863281 540.710938 C 1272.296875 541.28125 1272.269531 542.21875 1272.8125 542.808594 L 1296.394531 568.980469 C 1296.714844 569.351562 1296.886719 569.820312 1296.886719 570.3125 C 1296.863281 570.808594 1296.664062 571.277344 1296.320312 571.621094 C 1295.601562 572.339844 1294.441406 572.363281 1293.675781 571.671875 L 1267.257812 547.550781 C 1266.914062 547.230469 1266.371094 547.253906 1266.023438 547.574219 L 1265.554688 548.042969 C 1265.210938 548.390625 1265.210938 548.933594 1265.53125 549.277344 L 1289.554688 575.597656 C 1289.925781 575.992188 1290.121094 576.511719 1290.097656 577.054688 C 1290.070312 577.597656 1289.875 578.089844 1289.480469 578.488281 L 1289.429688 578.535156 C 1289.058594 578.90625 1288.542969 579.128906 1288 579.152344 C 1287.457031 579.179688 1286.9375 578.980469 1286.542969 578.609375 L 1260.246094 554.5625 C 1259.902344 554.242188 1259.359375 554.242188 1259.011719 554.585938 L 1258.542969 555.054688 C 1258.199219 555.402344 1258.199219 555.945312 1258.519531 556.289062 L 1282.640625 582.707031 C 1283.332031 583.472656 1283.308594 584.632812 1282.589844 585.351562 C 1282.246094 585.695312 1281.777344 585.894531 1281.28125 585.917969 C 1280.789062 585.941406 1280.320312 585.769531 1279.949219 585.425781 L 1253.804688 561.820312 C 1253.210938 561.277344 1252.273438 561.300781 1251.703125 561.871094 C 1251.113281 562.464844 1251.113281 563.375 1251.65625 563.992188 L 1277.652344 591.894531 C 1283.058594 597.300781 1290.566406 600.113281 1298.195312 599.597656 C 1301.578125 599.375 1304.933594 600.65625 1307.402344 603.101562 L 1311.304688 607.003906 L 1254.789062 607.003906 L 1254.789062 609.890625 L 1393.988281 609.890625 L 1393.988281 607.003906 Z M 1341.203125 607.003906 " fill-opacity="1" fill-rule="nonzero"/><g fill="#fcfcf4" fill-opacity="1"><g transform="translate(251.337067, 595.283345)"><g><path d="M 203.734375 -116.78125 L 203.734375 -71.53125 C 198.347656 -46.757812 186.550781 -28.007812 168.34375 -15.28125 C 150.144531 -2.5625 129.84375 3.796875 107.4375 3.796875 C 79.289062 3.796875 55.316406 -6.734375 35.515625 -27.796875 C 15.710938 -48.867188 5.8125 -74.316406 5.8125 -104.140625 C 5.8125 -134.472656 15.5 -160.085938 34.875 -180.984375 C 54.257812 -201.890625 78.445312 -212.34375 107.4375 -212.34375 C 141.300781 -212.34375 168.09375 -200.457031 187.8125 -176.6875 L 156.71875 -142.5625 C 145.601562 -160.425781 130.101562 -169.359375 110.21875 -169.359375 C 95.550781 -169.359375 83.035156 -162.992188 72.671875 -150.265625 C 62.304688 -137.546875 57.125 -122.171875 57.125 -104.140625 C 57.125 -86.453125 62.304688 -71.328125 72.671875 -58.765625 C 83.035156 -46.210938 95.550781 -39.9375 110.21875 -39.9375 C 122.34375 -39.9375 132.910156 -43.601562 141.921875 -50.9375 C 150.941406 -58.269531 155.453125 -68 155.453125 -80.125 L 107.4375 -80.125 L 107.4375 -116.78125 Z M 203.734375 -116.78125 "/></g></g></g><g fill="#fcfcf4" fill-opacity="1"><g transform="translate(460.892455, 595.283345)"><g><path d="M 24.015625 -16.046875 C 11.878906 -29.273438 5.8125 -45.492188 5.8125 -64.703125 C 5.8125 -83.921875 11.878906 -100.1875 24.015625 -113.5 C 36.148438 -126.8125 51.566406 -133.46875 70.265625 -133.46875 C 87.460938 -133.46875 101.617188 -128.078125 112.734375 -117.296875 L 112.734375 -129.671875 L 157.484375 -129.671875 L 157.484375 0 L 113.25 0 L 113.25 -14.65625 L 112.734375 -14.65625 C 101.617188 -2.351562 87.460938 3.796875 70.265625 3.796875 C 51.566406 3.796875 36.148438 -2.816406 24.015625 -16.046875 Z M 62.0625 -86.703125 C 56.25 -80.972656 53.34375 -73.640625 53.34375 -64.703125 C 53.34375 -55.773438 56.117188 -48.488281 61.671875 -42.84375 C 67.234375 -37.195312 74.566406 -34.375 83.671875 -34.375 C 92.429688 -34.375 99.632812 -37.238281 105.28125 -42.96875 C 110.925781 -48.695312 113.75 -55.945312 113.75 -64.71875 C 113.75 -73.644531 110.84375 -80.972656 105.03125 -86.703125 C 99.21875 -92.429688 92.097656 -95.296875 83.671875 -95.296875 C 75.078125 -95.296875 67.875 -92.429688 62.0625 -86.703125 Z M 62.0625 -86.703125 "/></g></g></g><g fill="#fcfcf4" fill-opacity="1"><g transform="translate(633.541861, 595.283345)"><g><path d="M 71.53125 -133.46875 C 78.945312 -133.46875 86.28125 -132.625 93.53125 -130.9375 C 100.78125 -129.25 106.171875 -127.566406 109.703125 -125.890625 L 115.015625 -123.359375 L 100.359375 -94.03125 C 90.242188 -99.425781 80.632812 -102.125 71.53125 -102.125 C 66.476562 -102.125 62.898438 -101.578125 60.796875 -100.484375 C 58.691406 -99.390625 57.640625 -97.320312 57.640625 -94.28125 C 57.640625 -93.613281 57.722656 -92.941406 57.890625 -92.265625 C 58.054688 -91.585938 58.390625 -90.953125 58.890625 -90.359375 C 59.398438 -89.773438 59.863281 -89.269531 60.28125 -88.84375 C 60.707031 -88.425781 61.425781 -87.960938 62.4375 -87.453125 C 63.445312 -86.953125 64.242188 -86.578125 64.828125 -86.328125 C 65.421875 -86.078125 66.390625 -85.695312 67.734375 -85.1875 C 69.085938 -84.675781 70.101562 -84.296875 70.78125 -84.046875 C 71.457031 -83.796875 72.59375 -83.414062 74.1875 -82.90625 C 75.789062 -82.40625 77.015625 -82.070312 77.859375 -81.90625 C 83.078125 -80.382812 87.625 -78.695312 91.5 -76.84375 C 95.382812 -74.988281 99.472656 -72.457031 103.765625 -69.25 C 108.066406 -66.050781 111.394531 -62.007812 113.75 -57.125 C 116.113281 -52.238281 117.296875 -46.675781 117.296875 -40.4375 C 117.296875 -10.945312 96.816406 3.796875 55.859375 3.796875 C 46.597656 3.796875 37.796875 2.363281 29.453125 -0.5 C 21.109375 -3.363281 15.082031 -6.226562 11.375 -9.09375 L 5.8125 -13.65625 L 24.015625 -44.234375 C 25.359375 -43.054688 27.125 -41.664062 29.3125 -40.0625 C 31.507812 -38.46875 35.472656 -36.28125 41.203125 -33.5 C 46.929688 -30.71875 51.90625 -29.328125 56.125 -29.328125 C 65.382812 -29.328125 70.015625 -32.441406 70.015625 -38.671875 C 70.015625 -41.535156 68.832031 -43.769531 66.46875 -45.375 C 64.113281 -46.976562 60.113281 -48.789062 54.46875 -50.8125 C 48.820312 -52.832031 44.398438 -54.6875 41.203125 -56.375 C 33.109375 -60.582031 26.703125 -65.335938 21.984375 -70.640625 C 17.273438 -75.953125 14.921875 -82.992188 14.921875 -91.765625 C 14.921875 -104.898438 20.015625 -115.132812 30.203125 -122.46875 C 40.398438 -129.800781 54.175781 -133.46875 71.53125 -133.46875 Z M 71.53125 -133.46875 "/></g></g></g><g fill="#fcfcf4" fill-opacity="1"><g transform="translate(757.910101, 595.283345)"><g><path d="M 22.75 -129.671875 L 22.75 -177.953125 L 67.5 -177.953125 L 67.5 -129.671875 L 94.796875 -129.671875 L 94.796875 -95.546875 L 67.5 -95.546875 L 67.5 -54.34375 C 67.5 -42.382812 70.867188 -36.40625 77.609375 -36.40625 C 79.285156 -36.40625 81.050781 -36.738281 82.90625 -37.40625 C 84.757812 -38.082031 86.191406 -38.757812 87.203125 -39.4375 L 88.71875 -40.4375 L 99.84375 -4.296875 C 90.238281 1.097656 79.285156 3.796875 66.984375 3.796875 C 58.554688 3.796875 51.304688 2.320312 45.234375 -0.625 C 39.171875 -3.582031 34.582031 -7.546875 31.46875 -12.515625 C 28.351562 -17.484375 26.117188 -22.707031 24.765625 -28.1875 C 23.421875 -33.664062 22.75 -39.519531 22.75 -45.75 L 22.75 -95.546875 L 4.046875 -95.546875 L 4.046875 -129.671875 Z M 22.75 -129.671875 "/></g></g></g><g fill="#fcfcf4" fill-opacity="1"><g transform="translate(857.758522, 595.283345)"><g><path d="M 15.171875 0 L 15.171875 -129.671875 L 59.90625 -129.671875 L 59.90625 -110.96875 L 60.421875 -110.96875 C 60.753906 -111.644531 61.296875 -112.488281 62.046875 -113.5 C 62.804688 -114.507812 64.453125 -116.273438 66.984375 -118.796875 C 69.515625 -121.328125 72.210938 -123.601562 75.078125 -125.625 C 77.941406 -127.65625 81.648438 -129.46875 86.203125 -131.0625 C 90.753906 -132.664062 95.382812 -133.46875 100.09375 -133.46875 C 104.988281 -133.46875 109.796875 -132.789062 114.515625 -131.4375 C 119.234375 -130.09375 122.6875 -128.75 124.875 -127.40625 L 128.40625 -125.375 L 109.703125 -87.46875 C 104.140625 -92.1875 96.390625 -94.546875 86.453125 -94.546875 C 81.054688 -94.546875 76.421875 -93.363281 72.546875 -91 C 68.671875 -88.644531 65.929688 -85.78125 64.328125 -82.40625 C 62.734375 -79.03125 61.597656 -76.160156 60.921875 -73.796875 C 60.242188 -71.441406 59.90625 -69.59375 59.90625 -68.25 L 59.90625 0 Z M 15.171875 0 "/></g></g></g><g fill="#fcfcf4" fill-opacity="1"><g transform="translate(983.64345, 595.283345)"><g><path d="M 27.421875 -15.40625 C 13.015625 -28.21875 5.8125 -44.648438 5.8125 -64.703125 C 5.8125 -84.765625 13.3125 -101.238281 28.3125 -114.125 C 43.3125 -127.019531 61.847656 -133.46875 83.921875 -133.46875 C 105.660156 -133.46875 123.988281 -126.976562 138.90625 -114 C 153.820312 -101.03125 161.28125 -84.601562 161.28125 -64.71875 C 161.28125 -44.832031 153.988281 -28.441406 139.40625 -15.546875 C 124.832031 -2.648438 106.335938 3.796875 83.921875 3.796875 C 60.671875 3.796875 41.835938 -2.601562 27.421875 -15.40625 Z M 62.0625 -86.703125 C 56.25 -80.972656 53.34375 -73.640625 53.34375 -64.703125 C 53.34375 -55.773438 56.117188 -48.488281 61.671875 -42.84375 C 67.234375 -37.195312 74.566406 -34.375 83.671875 -34.375 C 92.429688 -34.375 99.632812 -37.238281 105.28125 -42.96875 C 110.925781 -48.695312 113.75 -55.945312 113.75 -64.71875 C 113.75 -73.644531 110.84375 -80.972656 105.03125 -86.703125 C 99.21875 -92.429688 92.097656 -95.296875 83.671875 -95.296875 C 75.078125 -95.296875 67.875 -92.429688 62.0625 -86.703125 Z M 62.0625 -86.703125 "/></g></g></g><g clip-path="url(#1160e7164e)"><path fill="#fcfcf4" d="M 735.804688 83.953125 C 745.746094 83.742188 744.484375 68.160156 735.011719 69.101562 C 725.757812 70.019531 726.292969 84.160156 735.804688 83.953125 Z M 732.671875 63.238281 C 743.980469 61.167969 752.582031 71.085938 748.304688 82 C 744.117188 92.699219 726.796875 91.953125 722.894531 82 C 719.398438 73.070312 724.910156 64.660156 732.671875 63.238281 " fill-opacity="1" fill-rule="evenodd"/></g><path fill="#fcfcf4" d="M 663.878906 89.429688 C 668.234375 87.535156 678.460938 100.902344 671.304688 101.542969 C 670.050781 101.660156 656.839844 92.484375 663.878906 89.429688 " fill-opacity="1" fill-rule="evenodd"/><path fill="#fcfcf4" d="M 681.859375 101.152344 C 681.6875 100.671875 681.355469 100.351562 680.6875 100.371094 C 679.300781 96.617188 685.523438 89.410156 688.503906 89.035156 C 690.417969 88.796875 692.007812 89.796875 692.410156 90.992188 C 693.917969 95.433594 685.589844 101.070312 681.859375 101.152344 " fill-opacity="1" fill-rule="evenodd"/><path fill="#fcfcf4" d="M 674.039062 108.582031 C 675.292969 112.386719 667.992188 120.671875 663.878906 119.527344 C 658.007812 117.890625 668.511719 103.96875 674.039062 108.582031 " fill-opacity="1" fill-rule="evenodd"/><path fill="#fcfcf4" d="M 681.859375 107.796875 C 687.359375 104.828125 695.988281 119.214844 689.675781 119.917969 C 687.726562 120.132812 675.964844 110.976562 681.859375 107.796875 " fill-opacity="1" fill-rule="evenodd"/><g clip-path="url(#80aa6b29c2)"><path fill="#fcfcf4" d="M 694.757812 274.703125 C 694.496094 312.882812 695.277344 352.097656 694.367188 389.625 L 645.507812 389.625 L 645.507812 399.785156 L 759.253906 399.785156 L 759.253906 389.625 C 742.957031 389.367188 725.636719 390.148438 709.992188 389.238281 L 709.992188 274.316406 L 709.214844 274.316406 C 705.152344 275.207031 699.457031 274.464844 694.753906 274.703125 Z M 675.605469 251.25 C 677.394531 250.4375 678.695312 249.136719 679.511719 247.347656 C 674.035156 241.578125 673.207031 225.402344 677.558594 217.632812 C 666.742188 217.898438 654.886719 217.117188 644.722656 218.027344 C 655.28125 228.839844 665.511719 239.980469 675.605469 251.25 Z M 730.71875 217.632812 C 733.097656 222.285156 734.015625 228.78125 733.453125 234.835938 C 731.308594 257.875 701.800781 267.769531 684.59375 253.992188 C 680.539062 257.003906 682.175781 258.367188 684.984375 261.410156 C 686.355469 262.902344 687.765625 264.035156 689.285156 264.539062 C 696.945312 267.089844 709.03125 264.144531 715.46875 264.539062 C 728.898438 249.726562 744.414062 234.234375 757.300781 219.203125 C 757.816406 218.601562 759.484375 217.554688 758.863281 216.464844 L 730.320312 216.464844 C 730.3125 217 730.507812 217.324219 730.71875 217.632812 Z M 694.367188 228.582031 C 704.242188 228.367188 704.882812 211.113281 693.585938 212.160156 C 682.613281 213.1875 684.96875 228.78125 694.367188 228.582031 Z M 688.894531 234.054688 C 687.324219 233.589844 685.875 232.058594 684.59375 230.925781 C 683.226562 229.71875 682.101562 227.972656 681.074219 228.1875 C 678.085938 251.226562 706.996094 261.84375 720.949219 247.347656 C 734.882812 232.859375 725 206.710938 702.570312 207.46875 C 714.6875 216.78125 706.839844 239.40625 688.894531 234.054688 Z M 757.300781 181.675781 C 748.925781 189.902344 739.277344 199.304688 731.113281 207.46875 C 730.144531 208.4375 728.554688 209.601562 728.761719 210.996094 L 764.332031 210.996094 C 772.351562 203.175781 780.804688 193.40625 788.183594 185.191406 C 789.128906 184.132812 791.195312 183.265625 790.523438 181.675781 Z M 626.351562 197.703125 C 629.066406 200.625 636.601562 211.132812 640.425781 212.160156 C 644.640625 213.304688 650.914062 211.777344 656.839844 211.777344 C 665.128906 211.777344 674.488281 211.253906 680.6875 212.554688 C 686.175781 202.039062 709.464844 197.445312 720.554688 206.304688 C 726.90625 200.804688 733.828125 193.8125 739.703125 187.925781 C 741.570312 186.070312 744.96875 183.382812 744.394531 181.675781 C 700.230469 181.933594 655.015625 181.152344 611.5 182.070312 C 616.289062 187.207031 620.542969 191.433594 626.351562 197.703125 Z M 765.507812 173.855469 L 784.65625 173.855469 C 790.9375 173.855469 798.019531 172.738281 802.246094 175.425781 C 805.078125 181.890625 798.167969 186.238281 794.820312 189.882812 C 769.429688 217.542969 743.269531 246.527344 717.820312 274.316406 L 717.820312 381.800781 L 754.566406 381.800781 C 758.457031 381.800781 764.292969 381.21875 765.894531 382.59375 C 767.363281 383.835938 768.6875 403.609375 766.289062 406.433594 C 763.660156 409.511719 741.550781 407.605469 735.011719 407.605469 L 654.105469 407.605469 C 649.363281 407.605469 640.652344 408.347656 638.859375 406.828125 C 636.953125 405.199219 636.707031 385.050781 638.46875 382.976562 C 641.003906 380.003906 656.253906 381.800781 661.921875 381.800781 L 686.546875 381.800781 C 687.265625 350.675781 686.941406 320.910156 686.9375 288.773438 C 686.9375 284.253906 687.851562 278.917969 686.9375 275.484375 C 686.117188 272.390625 679.773438 266.96875 675.996094 262.980469 C 652.875 238.519531 631.179688 215.746094 607.980469 190.277344 C 604.734375 186.710938 597.902344 180.886719 599.382812 176.589844 C 600.660156 172.886719 609.382812 173.855469 616.191406 173.855469 L 733.453125 173.855469 C 740.078125 173.855469 747.792969 175.027344 752.609375 173.855469 C 756.085938 173.015625 759.867188 167.761719 763.15625 164.472656 C 766.832031 160.808594 770.1875 157.449219 772.933594 154.707031 C 778.710938 148.929688 787.273438 138.71875 792.863281 135.164062 C 794.324219 134.230469 797.671875 134.183594 798.34375 137.117188 C 799.300781 141.3125 793.910156 144.285156 790.917969 147.277344 C 782.386719 155.804688 772.824219 166.0625 765.507812 173.855469 " fill-opacity="1" fill-rule="evenodd"/></g><path fill="#fcfcf4" d="M 711.953125 157.046875 C 721.898438 156.835938 720.644531 141.253906 711.171875 142.195312 C 701.910156 143.117188 702.445312 157.253906 711.953125 157.046875 Z M 708.832031 136.332031 C 720.140625 134.261719 728.742188 144.179688 724.464844 155.09375 C 720.277344 165.796875 702.957031 165.054688 699.054688 155.09375 C 695.558594 146.160156 701.070312 137.753906 708.832031 136.332031 " fill-opacity="1" fill-rule="evenodd"/><g fill="#fcfcf4" fill-opacity="1"><g transform="translate(266.173645, 830.595205)"><g><path d="M 6.453125 -4.6875 L 6.453125 0 L 71.578125 0 L 71.578125 -4.6875 L 36.96875 -4.6875 L 55.4375 -61.3125 L 114.40625 -61.3125 L 133.46875 -4.6875 L 103.25 -4.6875 L 103.25 0 L 189.203125 0 L 189.203125 -4.6875 L 163.6875 -4.6875 L 99.4375 -199.765625 L 95.921875 -199.765625 L 31.6875 -4.6875 Z M 84.78125 -149.90625 L 112.9375 -66 L 57.203125 -66 Z M 84.78125 -149.90625 "/></g></g></g><g fill="#fcfcf4" fill-opacity="1"><g transform="translate(460.068795, 830.595205)"><g><path d="M 52.21875 -97.984375 L 52.21875 -114.984375 L 6.453125 -114.984375 L 6.453125 -110.296875 L 26.984375 -110.296875 L 26.984375 -4.6875 L 6.453125 -4.6875 L 6.453125 0 L 72.75 0 L 72.75 -4.6875 L 52.21875 -4.6875 L 52.21875 -85.0625 C 52.21875 -88.195312 53.144531 -91.425781 55 -94.75 C 56.851562 -98.070312 59.296875 -101.101562 62.328125 -103.84375 C 65.359375 -106.582031 68.734375 -108.78125 72.453125 -110.4375 C 76.171875 -112.101562 79.789062 -112.9375 83.3125 -112.9375 C 85.457031 -112.9375 87.359375 -112.789062 89.015625 -112.5 C 90.679688 -112.207031 91.515625 -111.472656 91.515625 -110.296875 C 91.515625 -109.316406 91.03125 -108.632812 90.0625 -108.25 C 88.882812 -107.46875 87.515625 -106.144531 85.953125 -104.28125 C 84.390625 -102.425781 83.609375 -99.539062 83.609375 -95.625 C 83.609375 -91.519531 84.972656 -88.144531 87.703125 -85.5 C 90.441406 -82.863281 94.0625 -81.546875 98.5625 -81.546875 C 102.476562 -81.546875 105.898438 -82.863281 108.828125 -85.5 C 111.765625 -88.144531 113.234375 -91.816406 113.234375 -96.515625 C 113.234375 -100.421875 112.445312 -103.691406 110.875 -106.328125 C 109.3125 -108.972656 107.304688 -111.125 104.859375 -112.78125 C 102.421875 -114.445312 99.585938 -115.671875 96.359375 -116.453125 C 93.128906 -117.234375 89.851562 -117.625 86.53125 -117.625 C 81.84375 -117.625 77.640625 -116.941406 73.921875 -115.578125 C 70.203125 -114.210938 66.875 -112.550781 63.9375 -110.59375 C 61.007812 -108.632812 58.566406 -106.53125 56.609375 -104.28125 C 54.660156 -102.03125 53.195312 -99.929688 52.21875 -97.984375 Z M 52.21875 -97.984375 "/></g></g></g><g fill="#fcfcf4" fill-opacity="1"><g transform="translate(577.403243, 830.595205)"><g><path d="M 51.921875 -114.984375 L 51.921875 -161.046875 L 26.6875 -148.4375 L 26.6875 -114.984375 L 6.75 -114.984375 L 6.75 -110.296875 L 26.6875 -110.296875 L 26.6875 -31.09375 C 26.6875 -20.144531 29.617188 -11.539062 35.484375 -5.28125 C 41.359375 0.976562 49.867188 4.109375 61.015625 4.109375 C 72.554688 4.109375 80.722656 1.8125 85.515625 -2.78125 C 90.304688 -7.382812 93.382812 -13.691406 94.75 -21.703125 C 94.945312 -22.679688 95.046875 -23.269531 95.046875 -23.46875 C 95.046875 -23.664062 95.046875 -23.957031 95.046875 -24.34375 C 95.046875 -25.90625 94.457031 -26.6875 93.28125 -26.6875 C 91.71875 -26.6875 90.835938 -25.710938 90.640625 -23.765625 C 89.660156 -17.109375 87.410156 -11.875 83.890625 -8.0625 C 80.367188 -4.25 76.066406 -2.34375 70.984375 -2.34375 C 64.140625 -2.34375 59.25 -4.6875 56.3125 -9.375 C 53.382812 -14.070312 51.921875 -21.113281 51.921875 -30.5 L 51.921875 -110.296875 L 80.375 -110.296875 L 80.375 -114.984375 Z M 51.921875 -114.984375 "/></g></g></g><g fill="#fcfcf4" fill-opacity="1"><g transform="translate(676.550803, 830.595205)"><g><path d="M 8.796875 -114.984375 L 8.796875 -110.296875 L 28.15625 -110.296875 L 77.15625 1.171875 L 60.140625 46.0625 C 57.597656 52.507812 54.8125 57.296875 51.78125 60.421875 C 48.75 63.554688 45.863281 65.125 43.125 65.125 C 41.5625 65.125 40.535156 64.734375 40.046875 63.953125 C 39.554688 63.171875 39.015625 62.191406 38.421875 61.015625 C 37.253906 58.472656 35.789062 56.566406 34.03125 55.296875 C 32.269531 54.023438 29.921875 53.390625 26.984375 53.390625 C 23.660156 53.390625 21.117188 54.460938 19.359375 56.609375 C 17.597656 58.765625 16.71875 61.3125 16.71875 64.25 C 16.71875 67.957031 17.9375 70.9375 20.375 73.1875 C 22.820312 75.4375 26.59375 76.5625 31.6875 76.5625 C 38.53125 76.5625 44.882812 73.96875 50.75 68.78125 C 56.613281 63.601562 61.207031 56.515625 64.53125 47.515625 L 124.96875 -110.296875 L 144.328125 -110.296875 L 144.328125 -114.984375 L 97.984375 -114.984375 L 97.984375 -110.296875 L 119.6875 -110.296875 L 89.171875 -30.5 L 55.15625 -110.296875 L 77.734375 -110.296875 L 77.734375 -114.984375 Z M 8.796875 -114.984375 "/></g></g></g><g fill="#fcfcf4" fill-opacity="1"><g transform="translate(824.97885, 830.595205)"><g><path d="M 83.3125 -117.625 L 76.5625 -110.890625 C 70.5 -116.359375 63.066406 -119.09375 54.265625 -119.09375 C 48.003906 -119.09375 42.429688 -118.066406 37.546875 -116.015625 C 32.660156 -113.960938 28.601562 -111.175781 25.375 -107.65625 C 22.144531 -104.132812 19.695312 -100.125 18.03125 -95.625 C 16.375 -91.132812 15.546875 -86.539062 15.546875 -81.84375 C 15.546875 -74.601562 17.644531 -68.242188 21.84375 -62.765625 C 26.050781 -57.296875 32.363281 -53.582031 40.78125 -51.625 C 43.320312 -51.039062 46.15625 -50.40625 49.28125 -49.71875 C 52.40625 -49.03125 55.582031 -48.25 58.8125 -47.375 C 62.039062 -46.5 65.171875 -45.519531 68.203125 -44.4375 C 71.234375 -43.363281 73.921875 -42.144531 76.265625 -40.78125 C 80.179688 -38.625 82.867188 -36.078125 84.328125 -33.140625 C 85.796875 -30.210938 86.53125 -27.179688 86.53125 -24.046875 C 86.53125 -19.941406 85.503906 -16.375 83.453125 -13.34375 C 81.398438 -10.3125 78.804688 -7.867188 75.671875 -6.015625 C 72.546875 -4.160156 69.222656 -2.789062 65.703125 -1.90625 C 62.179688 -1.03125 58.859375 -0.59375 55.734375 -0.59375 C 46.734375 -0.59375 38.8125 -3.082031 31.96875 -8.0625 C 25.125 -13.050781 20.332031 -20.726562 17.59375 -31.09375 C 17.007812 -32.851562 16.226562 -33.734375 15.25 -33.734375 C 14.082031 -33.734375 13.5 -32.953125 13.5 -31.390625 L 13.5 0 C 13.5 1.5625 14.082031 2.34375 15.25 2.34375 C 16.03125 2.34375 16.71875 1.851562 17.3125 0.875 L 23.46875 -8.21875 C 26.988281 -4.5 31.4375 -1.515625 36.8125 0.734375 C 42.1875 2.984375 48.785156 4.109375 56.609375 4.109375 C 63.066406 4.109375 68.738281 3.082031 73.625 1.03125 C 78.519531 -1.019531 82.675781 -3.851562 86.09375 -7.46875 C 89.519531 -11.09375 92.113281 -15.300781 93.875 -20.09375 C 95.632812 -24.882812 96.515625 -30.113281 96.515625 -35.78125 C 96.515625 -43.21875 94.65625 -50.257812 90.9375 -56.90625 C 87.21875 -63.550781 80.175781 -68.632812 69.8125 -72.15625 C 68.050781 -72.75 65.800781 -73.382812 63.0625 -74.0625 C 60.332031 -74.75 57.453125 -75.484375 54.421875 -76.265625 C 51.390625 -77.046875 48.359375 -77.828125 45.328125 -78.609375 C 42.296875 -79.398438 39.800781 -80.085938 37.84375 -80.671875 C 33.925781 -82.035156 31.132812 -83.742188 29.46875 -85.796875 C 27.8125 -87.859375 26.984375 -90.742188 26.984375 -94.453125 C 26.984375 -99.535156 29.425781 -104.128906 34.3125 -108.234375 C 39.207031 -112.347656 45.367188 -114.40625 52.796875 -114.40625 C 57.492188 -114.40625 61.648438 -113.523438 65.265625 -111.765625 C 68.890625 -110.003906 71.921875 -107.753906 74.359375 -105.015625 C 76.804688 -102.273438 78.757812 -99.191406 80.21875 -95.765625 C 81.6875 -92.347656 82.71875 -88.976562 83.3125 -85.65625 C 83.507812 -84.476562 84.09375 -83.890625 85.0625 -83.890625 C 85.851562 -83.890625 86.25 -84.476562 86.25 -85.65625 L 86.25 -117.046875 C 86.25 -118.410156 85.953125 -119.09375 85.359375 -119.09375 C 84.972656 -119.09375 84.289062 -118.601562 83.3125 -117.625 Z M 83.3125 -117.625 "/></g></g></g><g fill="#fcfcf4" fill-opacity="1"><g transform="translate(929.406537, 830.595205)"><g><path d="M 40.1875 -50.75 L 40.1875 -63.65625 C 40.1875 -73.238281 40.769531 -81.253906 41.9375 -87.703125 C 43.113281 -94.160156 44.925781 -99.394531 47.375 -103.40625 C 49.820312 -107.414062 52.898438 -110.25 56.609375 -111.90625 C 60.328125 -113.570312 64.726562 -114.40625 69.8125 -114.40625 C 77.050781 -114.40625 81.988281 -113.472656 84.625 -111.609375 C 87.269531 -109.753906 88.59375 -108.4375 88.59375 -107.65625 C 88.59375 -106.875 88.296875 -106.191406 87.703125 -105.609375 C 86.335938 -104.035156 85.3125 -102.414062 84.625 -100.75 C 83.945312 -99.09375 83.609375 -96.992188 83.609375 -94.453125 C 83.609375 -90.546875 84.878906 -87.5625 87.421875 -85.5 C 89.960938 -83.445312 92.894531 -82.421875 96.21875 -82.421875 C 100.125 -82.421875 103.25 -83.59375 105.59375 -85.9375 C 107.945312 -88.289062 109.125 -91.328125 109.125 -95.046875 C 109.125 -98.753906 107.851562 -102.125 105.3125 -105.15625 C 102.769531 -108.1875 99.59375 -110.726562 95.78125 -112.78125 C 91.96875 -114.84375 87.8125 -116.410156 83.3125 -117.484375 C 78.8125 -118.554688 74.507812 -119.09375 70.40625 -119.09375 C 62.78125 -119.09375 55.347656 -117.578125 48.109375 -114.546875 C 40.867188 -111.515625 34.410156 -107.3125 28.734375 -101.9375 C 23.066406 -96.5625 18.472656 -90.054688 14.953125 -82.421875 C 11.441406 -74.796875 9.6875 -66.390625 9.6875 -57.203125 C 9.6875 -47.816406 11.394531 -39.359375 14.8125 -31.828125 C 18.238281 -24.296875 22.738281 -17.84375 28.3125 -12.46875 C 33.882812 -7.09375 40.238281 -2.984375 47.375 -0.140625 C 54.507812 2.691406 61.695312 4.109375 68.9375 4.109375 C 76.175781 4.109375 82.53125 2.984375 88 0.734375 C 93.476562 -1.515625 98.070312 -4.347656 101.78125 -7.765625 C 105.5 -11.191406 108.429688 -14.8125 110.578125 -18.625 C 112.734375 -22.4375 114.300781 -25.910156 115.28125 -29.046875 C 115.675781 -30.210938 115.875 -30.992188 115.875 -31.390625 C 115.875 -33.148438 115.09375 -34.03125 113.53125 -34.03125 C 112.351562 -34.03125 111.472656 -33.050781 110.890625 -31.09375 C 109.710938 -27.375 107.945312 -23.707031 105.59375 -20.09375 C 103.25 -16.476562 100.363281 -13.203125 96.9375 -10.265625 C 93.519531 -7.328125 89.515625 -4.976562 84.921875 -3.21875 C 80.328125 -1.46875 75.289062 -0.59375 69.8125 -0.59375 C 63.75 -0.59375 58.8125 -1.46875 55 -3.21875 C 51.1875 -4.976562 48.15625 -7.863281 45.90625 -11.875 C 43.65625 -15.882812 42.140625 -21.066406 41.359375 -27.421875 C 40.578125 -33.785156 40.1875 -41.5625 40.1875 -50.75 Z M 40.1875 -50.75 "/></g></g></g><g fill="#fcfcf4" fill-opacity="1"><g transform="translate(1049.674361, 830.595205)"><g><path d="M 57.78125 -114.984375 L 10.5625 -114.984375 L 10.5625 -110.296875 L 32.5625 -110.296875 L 32.5625 -4.6875 L 10.5625 -4.6875 L 10.5625 0 L 79.796875 0 L 79.796875 -4.6875 L 57.78125 -4.6875 Z M 60.140625 -169.265625 C 60.140625 -173.566406 58.671875 -177.179688 55.734375 -180.109375 C 52.796875 -183.046875 49.175781 -184.515625 44.875 -184.515625 C 40.570312 -184.515625 36.953125 -183.046875 34.015625 -180.109375 C 31.085938 -177.179688 29.625 -173.566406 29.625 -169.265625 C 29.625 -164.960938 31.085938 -161.34375 34.015625 -158.40625 C 36.953125 -155.46875 40.570312 -154 44.875 -154 C 49.175781 -154 52.796875 -155.46875 55.734375 -158.40625 C 58.671875 -161.34375 60.140625 -164.960938 60.140625 -169.265625 Z M 60.140625 -169.265625 "/></g></g></g><g fill="#fcfcf4" fill-opacity="1"><g transform="translate(49.157988, 650.512448)"><g><path d="M 6.125 -9.796875 L 8.359375 -9.796875 C 8.773438 -9.796875 9.101562 -9.734375 9.34375 -9.609375 C 9.59375 -9.492188 9.785156 -9.320312 9.921875 -9.09375 C 10.066406 -8.863281 10.175781 -8.585938 10.25 -8.265625 C 10.332031 -7.953125 10.410156 -7.597656 10.484375 -7.203125 C 10.535156 -6.929688 10.609375 -6.796875 10.703125 -6.796875 C 10.816406 -6.796875 10.875 -6.921875 10.875 -7.171875 L 10.875 -12.921875 C 10.875 -13.140625 10.816406 -13.25 10.703125 -13.25 C 10.609375 -13.25 10.535156 -13.117188 10.484375 -12.859375 C 10.410156 -12.460938 10.332031 -12.101562 10.25 -11.78125 C 10.175781 -11.457031 10.066406 -11.179688 9.921875 -10.953125 C 9.785156 -10.734375 9.59375 -10.5625 9.34375 -10.4375 C 9.101562 -10.3125 8.773438 -10.25 8.359375 -10.25 L 6.125 -10.25 L 6.125 -18.578125 L 10.421875 -18.578125 C 11.066406 -18.578125 11.601562 -18.421875 12.03125 -18.109375 C 12.46875 -17.804688 12.816406 -17.421875 13.078125 -16.953125 C 13.347656 -16.492188 13.546875 -16.003906 13.671875 -15.484375 C 13.796875 -14.960938 13.863281 -14.492188 13.875 -14.078125 C 13.875 -13.816406 13.953125 -13.6875 14.109375 -13.6875 C 14.242188 -13.6875 14.3125 -13.804688 14.3125 -14.046875 L 14.3125 -18.359375 C 14.3125 -18.804688 14.070312 -19.03125 13.59375 -19.03125 L 0.9375 -19.03125 L 0.9375 -18.578125 L 3.375 -18.578125 L 3.375 -0.453125 L 0.96875 -0.453125 L 0.96875 0 L 14.28125 0 C 14.820312 0 15.09375 -0.300781 15.09375 -0.90625 L 15.09375 -5.15625 C 15.09375 -5.601562 15.019531 -5.828125 14.875 -5.828125 C 14.738281 -5.828125 14.632812 -5.628906 14.5625 -5.234375 C 14.40625 -4.523438 14.242188 -3.875 14.078125 -3.28125 C 13.910156 -2.695312 13.679688 -2.191406 13.390625 -1.765625 C 13.109375 -1.347656 12.75 -1.023438 12.3125 -0.796875 C 11.882812 -0.566406 11.34375 -0.453125 10.6875 -0.453125 L 6.125 -0.453125 Z M 6.125 -9.796875 "/></g></g></g><g fill="#fcfcf4" fill-opacity="1"><g transform="translate(65.41462, 650.512448)"><g><path d="M 12.78125 -19.234375 L 11.953125 -18.1875 C 11.609375 -18.375 11.285156 -18.539062 10.984375 -18.6875 C 10.679688 -18.84375 10.375 -18.96875 10.0625 -19.0625 C 9.757812 -19.15625 9.429688 -19.222656 9.078125 -19.265625 C 8.734375 -19.316406 8.332031 -19.34375 7.875 -19.34375 C 6.945312 -19.34375 6.117188 -19.191406 5.390625 -18.890625 C 4.671875 -18.585938 4.054688 -18.179688 3.546875 -17.671875 C 3.035156 -17.160156 2.644531 -16.570312 2.375 -15.90625 C 2.113281 -15.25 1.984375 -14.554688 1.984375 -13.828125 C 1.984375 -12.828125 2.289062 -11.910156 2.90625 -11.078125 C 3.519531 -10.242188 4.476562 -9.609375 5.78125 -9.171875 C 6.40625 -8.960938 6.929688 -8.789062 7.359375 -8.65625 C 7.796875 -8.53125 8.203125 -8.40625 8.578125 -8.28125 C 8.960938 -8.164062 9.347656 -8.035156 9.734375 -7.890625 C 10.117188 -7.742188 10.566406 -7.550781 11.078125 -7.3125 C 11.722656 -7.007812 12.15625 -6.585938 12.375 -6.046875 C 12.601562 -5.503906 12.71875 -4.960938 12.71875 -4.421875 C 12.71875 -3.742188 12.582031 -3.125 12.3125 -2.5625 C 12.050781 -2.007812 11.703125 -1.539062 11.265625 -1.15625 C 10.835938 -0.78125 10.335938 -0.488281 9.765625 -0.28125 C 9.203125 -0.0703125 8.628906 0.03125 8.046875 0.03125 C 7.367188 0.03125 6.71875 -0.0859375 6.09375 -0.328125 C 5.46875 -0.566406 4.890625 -0.898438 4.359375 -1.328125 C 3.828125 -1.765625 3.367188 -2.300781 2.984375 -2.9375 C 2.597656 -3.582031 2.300781 -4.300781 2.09375 -5.09375 C 2.039062 -5.34375 1.9375 -5.46875 1.78125 -5.46875 C 1.65625 -5.46875 1.59375 -5.335938 1.59375 -5.078125 L 1.59375 0 C 1.59375 0.25 1.675781 0.375 1.84375 0.375 C 1.957031 0.375 2.078125 0.273438 2.203125 0.078125 L 3.234375 -1.390625 C 3.453125 -1.179688 3.726562 -0.960938 4.0625 -0.734375 C 4.394531 -0.503906 4.765625 -0.296875 5.171875 -0.109375 C 5.578125 0.078125 6.007812 0.226562 6.46875 0.34375 C 6.9375 0.46875 7.414062 0.53125 7.90625 0.53125 C 8.8125 0.53125 9.648438 0.363281 10.421875 0.03125 C 11.203125 -0.289062 11.875 -0.742188 12.4375 -1.328125 C 13 -1.910156 13.445312 -2.601562 13.78125 -3.40625 C 14.113281 -4.21875 14.28125 -5.082031 14.28125 -6 C 14.28125 -7.269531 13.984375 -8.34375 13.390625 -9.21875 C 12.796875 -10.09375 11.851562 -10.722656 10.5625 -11.109375 C 10.132812 -11.234375 9.726562 -11.34375 9.34375 -11.4375 C 8.96875 -11.539062 8.582031 -11.644531 8.1875 -11.75 C 7.789062 -11.863281 7.375 -11.988281 6.9375 -12.125 C 6.5 -12.269531 6.019531 -12.445312 5.5 -12.65625 C 4.914062 -12.882812 4.472656 -13.234375 4.171875 -13.703125 C 3.867188 -14.179688 3.71875 -14.734375 3.71875 -15.359375 C 3.71875 -15.941406 3.835938 -16.453125 4.078125 -16.890625 C 4.328125 -17.335938 4.644531 -17.703125 5.03125 -17.984375 C 5.414062 -18.265625 5.859375 -18.476562 6.359375 -18.625 C 6.859375 -18.769531 7.363281 -18.84375 7.875 -18.84375 C 8.644531 -18.84375 9.320312 -18.707031 9.90625 -18.4375 C 10.5 -18.175781 10.992188 -17.828125 11.390625 -17.390625 C 11.785156 -16.953125 12.097656 -16.453125 12.328125 -15.890625 C 12.566406 -15.328125 12.722656 -14.742188 12.796875 -14.140625 C 12.816406 -13.953125 12.90625 -13.859375 13.0625 -13.859375 C 13.1875 -13.859375 13.25 -13.953125 13.25 -14.140625 L 13.25 -19.171875 C 13.25 -19.367188 13.195312 -19.46875 13.09375 -19.46875 C 13 -19.46875 12.894531 -19.390625 12.78125 -19.234375 Z M 12.78125 -19.234375 "/></g></g></g><g fill="#fcfcf4" fill-opacity="1"><g transform="translate(80.764963, 650.512448)"><g><path d="M 10.21875 -0.453125 L 10.21875 -18.578125 L 12.65625 -18.578125 C 13.53125 -18.578125 14.289062 -18.132812 14.9375 -17.25 C 15.59375 -16.363281 16.023438 -15.15625 16.234375 -13.625 L 16.828125 -13.625 L 16.40625 -18.5625 C 16.382812 -18.875 16.191406 -19.03125 15.828125 -19.03125 L 1.875 -19.03125 C 1.507812 -19.03125 1.316406 -18.875 1.296875 -18.5625 L 0.875 -13.625 L 1.46875 -13.625 C 1.675781 -15.15625 2.101562 -16.363281 2.75 -17.25 C 3.40625 -18.132812 4.171875 -18.578125 5.046875 -18.578125 L 7.484375 -18.578125 L 7.484375 -0.453125 L 5.046875 -0.453125 L 5.046875 0 L 12.65625 0 L 12.65625 -0.453125 Z M 10.21875 -0.453125 "/></g></g></g><g fill="#fcfcf4" fill-opacity="1"><g transform="translate(98.29607, 650.512448)"><g><path d="M 4.625 -1.421875 C 4.625 -1.847656 4.472656 -2.207031 4.171875 -2.5 C 3.878906 -2.800781 3.519531 -2.953125 3.09375 -2.953125 C 2.65625 -2.953125 2.289062 -2.800781 2 -2.5 C 1.707031 -2.207031 1.5625 -1.847656 1.5625 -1.421875 C 1.5625 -0.984375 1.707031 -0.617188 2 -0.328125 C 2.289062 -0.0351562 2.65625 0.109375 3.09375 0.109375 C 3.519531 0.109375 3.878906 -0.0351562 4.171875 -0.328125 C 4.472656 -0.617188 4.625 -0.984375 4.625 -1.421875 Z M 4.625 -1.421875 "/></g></g></g></svg>