<svg xmlns="http://www.w3.org/2000/svg" xmlns:xlink="http://www.w3.org/1999/xlink" width="500" zoomAndPan="magnify" viewBox="0 0 375 66.75" height="89" preserveAspectRatio="xMidYMid meet" version="1.0"><defs><clipPath id="20c1f93300"><path d="M 76 0.0390625 L 148 0.0390625 L 148 66.5 L 76 66.5 Z M 76 0.0390625 " clip-rule="nonzero"/></clipPath><clipPath id="80674c6ce6"><path d="M 1 0.0390625 L 72 0.0390625 L 72 66.5 L 1 66.5 Z M 1 0.0390625 " clip-rule="nonzero"/></clipPath><clipPath id="acb00c9e04"><path d="M 152 0.0390625 L 223 0.0390625 L 223 66.5 L 152 66.5 Z M 152 0.0390625 " clip-rule="nonzero"/></clipPath><clipPath id="7614113cdd"><path d="M 227 0.0390625 L 299 0.0390625 L 299 66.5 L 227 66.5 Z M 227 0.0390625 " clip-rule="nonzero"/></clipPath><clipPath id="8725f3af43"><path d="M 303 0.0390625 L 374 0.0390625 L 374 66.5 L 303 66.5 Z M 303 0.0390625 " clip-rule="nonzero"/></clipPath></defs><g clip-path="url(#20c1f93300)"><path fill="#ffb600" d="M 111.898438 0.0390625 L 120.183594 25.429688 L 147.003906 25.429688 L 125.300781 41.128906 L 133.585938 66.539062 L 111.898438 50.839844 L 90.191406 66.539062 L 98.496094 41.128906 L 76.789062 25.429688 L 103.613281 25.429688 Z M 111.898438 0.0390625 " fill-opacity="1" fill-rule="nonzero"/></g><g clip-path="url(#80674c6ce6)"><path fill="#ffb600" d="M 36.292969 0.0390625 L 44.578125 25.429688 L 71.402344 25.429688 L 49.695312 41.128906 L 57.980469 66.539062 L 36.292969 50.839844 L 14.589844 66.539062 L 22.875 41.128906 L 1.1875 25.429688 L 28.007812 25.429688 Z M 36.292969 0.0390625 " fill-opacity="1" fill-rule="nonzero"/></g><g clip-path="url(#acb00c9e04)"><path fill="#ffb600" d="M 187.5 0.0390625 L 195.785156 25.429688 L 222.609375 25.429688 L 200.902344 41.128906 L 209.1875 66.539062 L 187.5 50.839844 L 165.792969 66.539062 L 174.097656 41.128906 L 152.390625 25.429688 L 179.214844 25.429688 Z M 187.5 0.0390625 " fill-opacity="1" fill-rule="nonzero"/></g><g clip-path="url(#7614113cdd)"><path fill="#ffb600" d="M 263.101562 0.0390625 L 271.386719 25.429688 L 298.210938 25.429688 L 276.503906 41.128906 L 284.789062 66.539062 L 263.101562 50.839844 L 241.398438 66.539062 L 249.699219 41.128906 L 227.996094 25.429688 L 254.816406 25.429688 Z M 263.101562 0.0390625 " fill-opacity="1" fill-rule="nonzero"/></g><g clip-path="url(#8725f3af43)"><path fill="#ffb600" d="M 338.707031 0.0390625 L 346.992188 25.429688 L 373.8125 25.429688 L 352.109375 41.128906 L 360.394531 66.539062 L 338.707031 50.839844 L 317 66.539062 L 325.304688 41.128906 L 303.597656 25.429688 L 330.421875 25.429688 Z M 338.707031 0.0390625 " fill-opacity="1" fill-rule="nonzero"/></g></svg>